<svg width="429" height="369" viewBox="0 0 429 369" fill="none" xmlns="http://www.w3.org/2000/svg">
<path fill-rule="evenodd" clip-rule="evenodd" d="M94.7128 39.8758C116.778 49.8712 143.44 64.9192 167.498 83.6212C161.455 99.0382 156.667 114.977 154.009 130.698C153.493 133.747 153.057 136.791 152.707 139.824C149.951 138.641 147.144 137.523 144.296 136.468C129.284 130.905 113.025 127.048 96.5932 124.52C92.234 94.4248 92.4081 63.8937 94.7128 39.8758ZM157.239 141.849C157.602 138.417 158.082 134.96 158.669 131.486C161.192 116.567 165.688 101.41 171.377 86.6868C183.772 96.6491 195.352 107.586 205.094 119.297C207.417 122.09 209.632 124.924 211.728 127.795C203.187 140.042 196.706 153.074 193.332 166.704C183.409 156.429 171.031 148.268 157.239 141.849ZM142.654 140.9C145.91 142.107 149.1 143.393 152.215 144.763C150.627 163.655 152.568 182 159.71 198.396C167.743 216.838 182.272 232.609 205.307 243.862C180.866 245.38 161.574 239.17 146.377 227.953C129.342 215.38 117.241 196.356 108.919 174.292C103.599 160.188 99.8512 144.913 97.3444 129.421C112.987 131.906 128.412 135.623 142.654 140.9ZM143.57 231.756C159.798 243.734 180.288 250.201 205.851 248.564C185.403 262.064 165.512 266.273 146.643 264.085C125.541 261.637 105.459 251.155 87.1181 236.169C51.4444 207.019 22.9043 161.269 7.01041 126.816C31.2506 124.532 62.066 124.359 92.4408 128.683C94.992 144.968 98.8846 161.081 104.496 175.96C113.016 198.547 125.563 218.465 143.57 231.756ZM282.342 264.085C263.464 266.275 243.564 262.06 223.105 248.545C248.81 250.253 269.398 243.783 285.691 231.757C303.698 218.466 316.245 198.548 324.765 175.961C330.381 161.069 334.276 144.942 336.827 128.643C367.11 124.36 397.809 124.539 421.974 126.817C406.081 161.27 377.54 207.02 341.867 236.169C323.526 251.156 303.443 261.637 282.342 264.085ZM334.548 39.8767C336.852 63.8828 337.027 94.3958 332.674 124.476C316.146 127.004 299.787 130.874 284.689 136.468C281.693 137.578 278.744 138.757 275.85 140.008C275.497 136.914 275.053 133.809 274.527 130.698C271.894 115.124 267.171 99.337 261.208 84.0548C285.41 65.1521 312.314 49.949 334.548 39.8767ZM276.338 144.955C279.589 143.513 282.924 142.163 286.331 140.9C300.659 135.592 316.184 131.861 331.924 129.376C329.417 144.884 325.667 160.175 320.342 174.293C312.02 196.357 299.919 215.381 282.884 227.954C267.555 239.269 248.058 245.489 223.313 243.821C246.3 232.571 260.802 216.816 268.826 198.396C275.944 182.056 277.896 163.779 276.338 144.955ZM269.867 131.486C270.466 135.028 270.953 138.552 271.318 142.049C257.799 148.389 245.655 156.415 235.873 166.477C232.483 152.93 226.027 139.974 217.534 127.795C219.629 124.924 221.844 122.091 224.167 119.298C233.764 107.761 245.145 96.9757 257.331 87.1332C262.939 101.716 267.369 116.718 269.867 131.486ZM237.092 172.085C246.371 161.832 258.246 153.6 271.76 147.073C273.012 164.7 271.01 181.547 264.493 196.508C257.008 213.691 243.482 228.586 221.643 239.375C235.734 218.326 240.29 197.575 237.945 177.719C237.722 175.831 237.437 173.953 237.092 172.085ZM214.631 131.912C223.027 144.25 229.145 157.25 232.002 170.713C230.754 172.166 229.554 173.659 228.403 175.191C222.166 183.491 217.41 192.917 214.492 203.578C211.575 192.917 206.819 183.491 200.582 175.191C199.499 173.75 198.373 172.344 197.205 170.972C200.038 157.417 206.181 144.33 214.631 131.912ZM216.879 215.336C218.974 200.741 224.375 188.421 232.181 178.03C232.475 177.64 232.772 177.252 233.072 176.866C233.136 177.335 233.196 177.804 233.251 178.273C235.46 196.982 231.205 216.71 217.545 237C218.048 229.325 217.802 222.111 216.879 215.336ZM196.803 178.03C204.61 188.421 210.011 200.741 212.106 215.336C211.201 221.977 210.947 229.04 211.411 236.546C197.993 216.416 193.818 196.843 196.01 178.274C196.054 177.906 196.1 177.538 196.148 177.17C196.288 177.351 196.427 177.532 196.565 177.714C196.645 177.819 196.724 177.925 196.803 178.03ZM207.971 239.902C185.499 229.073 171.651 213.972 164.043 196.508C157.5 181.488 155.508 164.567 156.791 146.865C170.597 153.478 182.711 161.858 192.122 172.34C191.798 174.124 191.529 175.917 191.316 177.72C188.952 197.741 193.603 218.672 207.971 239.902ZM214.631 123.767C212.746 121.234 210.775 118.736 208.728 116.275C198.468 103.94 186.245 92.4748 173.197 82.0902C184.617 53.9245 200.162 27.6306 214.268 8.01136C228.447 27.7323 244.08 54.1971 255.516 82.5281C242.674 92.7971 230.65 104.114 220.533 116.276C218.487 118.736 216.516 121.234 214.631 123.767Z" fill="white"/>
<path d="M78.0499 297.043C78.8521 295.07 80.7698 293.78 82.8999 293.78H83.7679C85.9002 293.78 87.8195 295.073 88.6202 297.049L114.932 361.99C116.165 365.033 113.925 368.357 110.641 368.357C108.749 368.357 107.048 367.206 106.344 365.449L98.7568 346.509L86.2714 355.601C84.4294 356.943 81.9313 356.939 80.0936 355.591L67.7071 346.509L60.2144 365.438C59.5171 367.2 57.8146 368.357 55.92 368.357C52.6413 368.357 50.4067 365.036 51.6415 361.999L78.0499 297.043ZM96.6729 339.156L83.3362 304.704L69.5826 339.156L79.9066 347.372C81.8203 348.895 84.5334 348.89 86.4415 347.36L96.6729 339.156Z" fill="white"/>
<path d="M119.845 330.543C119.845 325.992 120.609 321.545 122.137 317.203C123.734 312.792 126.027 308.8 129.014 305.229C132.07 301.588 135.786 298.717 140.162 296.616C144.538 294.445 149.505 293.36 155.062 293.36C161.661 293.36 167.322 294.9 172.045 297.981C175.623 300.262 178.503 303.044 180.686 306.329C181.893 308.146 181.203 310.533 179.377 311.725C177.16 313.174 174.215 312.269 172.609 310.163C171.687 308.954 170.666 307.905 169.545 307.015C167.322 305.124 164.891 303.793 162.251 303.023C159.681 302.253 157.146 301.868 154.645 301.868C150.547 301.868 146.9 302.708 143.705 304.389C140.579 306.069 137.939 308.31 135.786 311.111C133.633 313.912 132 317.063 130.889 320.565C129.847 323.996 129.326 327.462 129.326 330.963C129.326 334.815 129.951 338.526 131.202 342.098C132.521 345.669 134.327 348.82 136.62 351.551C138.912 354.282 141.621 356.453 144.747 358.063C147.873 359.674 151.276 360.479 154.958 360.479C157.528 360.479 160.167 360.024 162.876 359.114C165.585 358.203 168.121 356.803 170.483 354.912C171.659 353.936 172.714 352.821 173.649 351.566C175.224 349.453 178.085 348.438 180.393 349.71C182.404 350.819 183.304 353.292 182.082 355.237C180.699 357.439 178.951 359.397 176.838 361.11C173.643 363.7 170.066 365.661 166.106 366.992C162.217 368.322 158.361 368.987 154.541 368.987C149.47 368.987 144.816 367.902 140.579 365.731C136.342 363.49 132.66 360.549 129.535 356.908C126.478 353.197 124.082 349.065 122.345 344.513C120.678 339.892 119.845 335.235 119.845 330.543Z" fill="white"/>
<path d="M249.007 297.981C249.007 300.302 247.126 302.183 244.805 302.183H223.48V363.669C223.48 366.258 221.38 368.357 218.791 368.357C216.201 368.357 214.102 366.258 214.102 363.669V302.183H192.776C190.456 302.183 188.575 300.302 188.575 297.981C188.575 295.661 190.456 293.78 192.776 293.78H244.805C247.126 293.78 249.007 295.661 249.007 297.981Z" fill="white"/>
<path d="M264.35 368.357C261.761 368.357 259.661 366.258 259.661 363.669V299.015C259.661 296.124 262.005 293.78 264.897 293.78H290.503C293.767 293.78 296.754 294.48 299.463 295.881C302.172 297.211 304.534 299.032 306.549 301.343C308.563 303.583 310.126 306.139 311.237 309.01C312.349 311.811 312.904 314.682 312.904 317.624C312.904 321.685 312.001 325.571 310.195 329.283C308.389 332.924 305.854 335.9 302.589 338.211C299.324 340.452 295.504 341.572 291.128 341.572H269.039V363.669C269.039 366.258 266.94 368.357 264.35 368.357ZM269.039 333.169H290.607C293.177 333.169 295.4 332.469 297.275 331.068C299.22 329.668 300.714 327.777 301.756 325.396C302.867 323.016 303.423 320.425 303.423 317.624C303.423 314.682 302.798 312.056 301.547 309.746C300.297 307.365 298.665 305.509 296.65 304.179C294.636 302.848 292.413 302.183 289.982 302.183H269.039V333.169Z" fill="white"/>
<path d="M340.467 297.043C341.269 295.07 343.187 293.78 345.317 293.78H346.185C348.317 293.78 350.236 295.073 351.037 297.049L377.349 361.99C378.582 365.033 376.342 368.357 373.058 368.357C371.166 368.357 369.465 367.206 368.761 365.449L361.174 346.509L348.103 355.657C346.234 356.965 343.734 356.912 341.922 355.527L330.124 346.509L322.631 365.438C321.934 367.2 320.231 368.357 318.337 368.357C315.058 368.357 312.823 365.036 314.058 361.999L340.467 297.043ZM359.09 339.156L345.753 304.704L331.999 339.156L341.75 347.293C343.63 348.862 346.345 348.918 348.288 347.43L359.09 339.156Z" fill="white"/>
</svg>
