<svg width="92" height="76" viewBox="0 0 92 76" fill="none" xmlns="http://www.w3.org/2000/svg">
<path d="M1 26.5567C7.63118 41.3376 25.8357 67.1357 45.6046 52.081C48.8745 27.585 17.2307 24.8581 1 26.5567Z" fill="#252850"/>
<path d="M90.2793 26.5567C74.0486 24.8581 42.4048 27.585 45.6747 52.081C65.4436 67.1357 83.6481 41.3376 90.2793 26.5567Z" fill="#252850"/>
<path d="M71.4667 7.85314C56.5537 14.4256 30.5249 32.4688 45.7143 52.0625C70.4292 55.3035 73.1805 23.94 71.4667 7.85314Z" fill="#252850"/>
<path d="M19.871 7.85295C18.1573 23.9398 20.9085 55.3033 45.6235 52.0623C60.8128 32.4686 34.7841 14.4254 19.871 7.85295Z" fill="#252850"/>
<path d="M45.5922 1C35.9799 14.0823 22.5228 42.6073 45.5922 52.0486C68.6615 42.6073 55.2044 14.0823 45.5922 1Z" fill="#252850"/>
<path d="M1 26.5567C7.63118 41.3376 25.8357 67.1357 45.6046 52.081C48.8745 27.585 17.2307 24.8581 1 26.5567Z" stroke="white"/>
<path d="M90.2793 26.5567C74.0486 24.8581 42.4048 27.585 45.6747 52.081C65.4436 67.1357 83.6481 41.3376 90.2793 26.5567Z" stroke="white"/>
<path d="M71.4667 7.85314C56.5537 14.4256 30.5249 32.4688 45.7143 52.0625C70.4292 55.3035 73.1805 23.94 71.4667 7.85314Z" stroke="white"/>
<path d="M19.871 7.85295C18.1573 23.9398 20.9085 55.3033 45.6235 52.0623C60.8128 32.4686 34.7841 14.4254 19.871 7.85295Z" stroke="white"/>
<path d="M45.5922 1C35.9799 14.0823 22.5228 42.6073 45.5922 52.0486C68.6615 42.6073 55.2044 14.0823 45.5922 1Z" stroke="white"/>
<path d="M16.7736 60.4212C16.9433 60.0038 17.349 59.7308 17.7996 59.7308H17.9833C18.4344 59.7308 18.8404 60.0044 19.0098 60.4225L24.5764 74.1614C24.8372 74.8053 24.3634 75.5085 23.6687 75.5085C23.2684 75.5085 22.9084 75.265 22.7596 74.8934L21.1543 70.8863L18.5129 72.8099C18.1232 73.0937 17.5947 73.0928 17.2059 72.8078L14.5854 70.8863L13.0002 74.891C12.8527 75.2637 12.4925 75.5085 12.0917 75.5085C11.3981 75.5085 10.9253 74.806 11.1865 74.1634L16.7736 60.4212ZM20.7135 69.3308L17.8919 62.0419L14.9822 69.3308L17.1664 71.0688C17.5712 71.391 18.1452 71.3899 18.5489 71.0663L20.7135 69.3308Z" fill="#252850"/>
<path d="M25.6157 67.5085C25.6157 66.5456 25.7774 65.6048 26.1007 64.6863C26.4387 63.753 26.9236 62.9085 27.5555 62.153C28.2021 61.3826 28.9884 60.7752 29.9142 60.3308C30.84 59.8715 31.8907 59.6419 33.0664 59.6419C34.4625 59.6419 35.6602 59.9678 36.6595 60.6197C37.4163 61.1021 38.0256 61.6908 38.4874 62.3857C38.7428 62.7701 38.5969 63.2751 38.2106 63.5274C37.7414 63.8338 37.1184 63.6424 36.7786 63.1968C36.5836 62.9412 36.3676 62.7191 36.1304 62.5308C35.6602 62.1308 35.1458 61.8493 34.5874 61.6863C34.0436 61.5234 33.5073 61.4419 32.9782 61.4419C32.1112 61.4419 31.3397 61.6197 30.6637 61.9752C30.0024 62.3308 29.4439 62.8048 28.9884 63.3974C28.5328 63.99 28.1875 64.6567 27.9523 65.3974C27.7319 66.1234 27.6217 66.8567 27.6217 67.5974C27.6217 68.4122 27.7539 69.1974 28.0185 69.953C28.2977 70.7085 28.6798 71.3752 29.1647 71.953C29.6497 72.5308 30.2228 72.99 30.8841 73.3308C31.5454 73.6715 32.2655 73.8419 33.0443 73.8419C33.5881 73.8419 34.1465 73.7456 34.7196 73.553C35.2928 73.3604 35.8292 73.0641 36.3288 72.6641C36.5776 72.4575 36.8009 72.2216 36.9987 71.9563C37.332 71.5092 37.9371 71.2944 38.4255 71.5636C38.851 71.7981 39.0414 72.3214 38.7829 72.7327C38.4902 73.1987 38.1203 73.6128 37.6735 73.9752C36.9975 74.5234 36.2406 74.9382 35.403 75.2197C34.58 75.5011 33.7644 75.6419 32.9562 75.6419C31.8834 75.6419 30.8988 75.4122 30.0024 74.953C29.1059 74.4789 28.3271 73.8567 27.6658 73.0863C27.0192 72.3011 26.5122 71.4271 26.1448 70.4641C25.7921 69.4863 25.6157 68.5011 25.6157 67.5085Z" fill="#252850"/>
<path d="M52.9416 60.6197C52.9416 61.1106 52.5436 61.5085 52.0527 61.5085H47.541V74.5166C47.541 75.0644 47.0969 75.5085 46.549 75.5085C46.0012 75.5085 45.5571 75.0644 45.5571 74.5166V61.5085H41.0453C40.5544 61.5085 40.1564 61.1106 40.1564 60.6197C40.1564 60.1287 40.5544 59.7308 41.0453 59.7308H52.0527C52.5436 59.7308 52.9416 60.1287 52.9416 60.6197Z" fill="#252850"/>
<path d="M56.1877 75.5085C55.6398 75.5085 55.1957 75.0644 55.1957 74.5166V60.8384C55.1957 60.2267 55.6916 59.7308 56.3033 59.7308H61.7206C62.4113 59.7308 63.0432 59.8789 63.6163 60.1752C64.1894 60.4567 64.6891 60.8419 65.1152 61.3308C65.5414 61.8048 65.8721 62.3456 66.1072 62.953C66.3423 63.5456 66.4599 64.153 66.4599 64.7752C66.4599 65.6345 66.2688 66.4567 65.8868 67.2419C65.5047 68.0122 64.9683 68.6419 64.2776 69.1308C63.5869 69.6048 62.7786 69.8419 61.8528 69.8419H57.1796V74.5166C57.1796 75.0644 56.7355 75.5085 56.1877 75.5085ZM57.1796 68.0641H61.7426C62.2863 68.0641 62.7566 67.9159 63.1534 67.6197C63.5649 67.3234 63.8808 66.9234 64.1012 66.4197C64.3364 65.916 64.4539 65.3678 64.4539 64.7752C64.4539 64.153 64.3217 63.5974 64.0572 63.1085C63.7926 62.6048 63.4473 62.2122 63.0211 61.9308C62.595 61.6493 62.1247 61.5085 61.6103 61.5085H57.1796V68.0641Z" fill="#252850"/>
<path d="M72.291 60.4212C72.4608 60.0038 72.8665 59.7308 73.3171 59.7308H73.5007C73.9519 59.7308 74.3579 60.0044 74.5273 60.4225L80.0938 74.1614C80.3547 74.8053 79.8809 75.5085 79.1862 75.5085C78.7859 75.5085 78.4259 75.265 78.2771 74.8934L76.6718 70.8863L73.9066 72.8217C73.5112 73.0984 72.9822 73.0873 72.5988 72.7942L70.1029 70.8863L68.5177 74.891C68.3702 75.2637 68.01 75.5085 67.6092 75.5085C66.9156 75.5085 66.4428 74.806 66.704 74.1634L72.291 60.4212ZM76.231 69.3308L73.4094 62.0419L70.4997 69.3308L72.5626 71.0522C72.9602 71.384 73.5347 71.396 73.9458 71.0811L76.231 69.3308Z" fill="#252850"/>
</svg>
