<svg width="40" height="40" viewBox="0 0 40 40" fill="none" xmlns="http://www.w3.org/2000/svg">
<path d="M20 5L20.5303 4.46967C20.3897 4.32902 20.1989 4.25 20 4.25C19.8011 4.25 19.6103 4.32902 19.4697 4.46967L20 5ZM8.33331 16.6667L7.80298 16.1363C7.66233 16.277 7.58331 16.4678 7.58331 16.6667L8.33331 16.6667ZM31.6666 16.6667H32.4166C32.4166 16.4678 32.3376 16.277 32.197 16.1363L31.6666 16.6667ZM31.6667 33.3333V34.0833C31.8656 34.0833 32.0563 34.0043 32.197 33.8637C32.3376 33.723 32.4167 33.5322 32.4167 33.3333H31.6667ZM8.33332 33.3333H7.58332C7.58332 33.7475 7.91911 34.0833 8.33332 34.0833V33.3333ZM19.4697 4.46967L7.80298 16.1363L8.86364 17.197L20.5303 5.53033L19.4697 4.46967ZM32.197 16.1363L20.5303 4.46967L19.4697 5.53033L31.1363 17.197L32.197 16.1363ZM30.9166 16.6667L30.9167 33.3333H32.4167L32.4166 16.6667L30.9166 16.6667ZM31.6667 32.5833H8.33332V34.0833H31.6667V32.5833ZM9.08332 33.3333L9.08331 16.6667L7.58331 16.6667L7.58332 33.3333H9.08332Z" fill="#252850"/>
</svg>
