<?xml version="1.0" standalone="no"?>
<!DOCTYPE svg PUBLIC "-//W3C//DTD SVG 1.1//EN">
<svg xmlns="http://www.w3.org/2000/svg">
<metadata>Generated by IcoMoon</metadata>
<defs>
<font id="icomoon" horiz-adv-x="1024">
<font-face units-per-em="1024" ascent="960" descent="-64" />
<missing-glyph horiz-adv-x="1024" />
<glyph unicode="&#x20;" horiz-adv-x="512" d="" />
<glyph unicode="&#xe900;" glyph-name="checkbox-off" d="M0.453 961.902l-0.154-73.228-1.987-951.959 1023.389-2.143 2.139 1025.186zM76.37 892.355l881.736-2.353-3.68-890.918-880.971 2.609z" />
<glyph unicode="&#xe901;" glyph-name="basket" d="M512 947.2c-74.359 0-125.197-43.54-146.4-90.7-13.505-30.037-8.97-54.886-8.9-81.4h-305.5c-21.208 0-38.4-17.192-38.4-38.4v0c0-21.208 17.192-38.4 38.4-38.4v0h58.1l82.6-670.8c5.485-44.616 43.952-78.7 88.9-78.7h462.4c44.948 0 83.41 34.086 88.9 78.7l82.6 670.8h58.1c21.208 0 38.4 17.192 38.4 38.4v0c0 21.208-17.192 38.4-38.4 38.4v0h-305.5c0.070 26.514 4.605 51.363-8.9 81.4-21.203 47.16-72.041 90.7-146.4 90.7zM512 870.4c48.521 0 64.223-18.538 76.3-45.4 7.505-16.693 5.262-32.663 5.6-49.9h-163.8c0.338 17.237-1.905 33.207 5.6 49.9 12.077 26.862 27.779 45.4 76.3 45.4zM186.8 698.3h650.4l-81.3-661.5c-0.828-6.73-5.926-11.2-12.7-11.2h-462.4c-6.773 0-11.873 4.473-12.7 11.2zM419.8 573.3c-21.208 0-38.4-17.192-38.4-38.4v0-345.9c0-21.208 17.192-38.4 38.4-38.4v0c21.208 0 38.4 17.192 38.4 38.4v0 345.9c0 21.208-17.192 38.4-38.4 38.4v0zM604.2 573.3c-21.208 0-38.4-17.192-38.4-38.4v0-345.9c0-21.208 17.192-38.4 38.4-38.4v0c21.208 0 38.4 17.192 38.4 38.4v0 345.9c0 21.208-17.192 38.4-38.4 38.4v0z" />
<glyph unicode="&#xe902;" glyph-name="bell" d="M620.611 32.189v0zM570.783-1.106v0zM453.22-1.106v0zM403.388 32.189v0zM370.092 82.017v0zM396.8 192c0 21.207-17.192 38.4-38.4 38.4s-38.4-17.193-38.4-38.4h76.8zM704 192c0 21.207-17.193 38.4-38.4 38.4s-38.4-17.193-38.4-38.4h76.8zM921.6 192v-38.4c12.744 0 24.653 6.318 31.795 16.87 7.148 10.552 8.591 23.962 3.86 35.789l-35.656-14.259zM102.4 192l-34.346 17.172c-5.952-11.904-5.316-26.040 1.681-37.361s19.356-18.212 32.665-18.212v38.4zM627.2 140.8c0-15.13-2.98-30.111-8.771-44.083l70.953-29.394c9.651 23.296 14.618 48.261 14.618 73.477h-76.8zM618.429 96.717c-5.786-13.978-14.275-26.68-24.97-37.376l54.308-54.308c17.828 17.833 31.969 38.999 41.615 62.29l-70.953 29.394zM593.459 59.341c-10.696-10.696-23.398-19.185-37.374-24.97l29.392-70.953c23.291 9.646 44.457 23.788 62.29 41.615l-54.308 54.308zM556.085 34.371c-13.977-5.791-28.957-8.771-44.085-8.771v-76.8c25.214 0 50.181 4.966 73.477 14.618l-29.392 70.953zM512 25.6c-15.128 0-30.109 2.98-44.085 8.771l-29.39-70.953c23.294-9.651 48.261-14.618 73.475-14.618v76.8zM467.915 34.371c-13.977 5.786-26.676 14.275-37.373 24.97l-54.306-54.308c17.829-17.828 38.995-31.969 62.289-41.615l29.39 70.953zM430.541 59.341c-10.697 10.696-19.183 23.398-24.972 37.376l-70.954-29.394c9.649-23.291 23.792-44.457 41.62-62.29l54.306 54.308zM405.569 96.717c-5.789 13.972-8.769 28.954-8.769 44.083h-76.8c0-25.216 4.966-50.181 14.615-73.477l70.954 29.394zM396.8 140.8v51.2h-76.8v-51.2h76.8zM704 140.8v51.2h-76.8v-51.2h76.8zM780.8 601.6c0-83.058 27.228-190.275 52.9-273.695 13.030-42.358 26.051-79.785 35.814-106.629 4.884-13.43 8.96-24.243 11.832-31.729 1.439-3.743 2.57-6.656 3.354-8.653 0.394-0.998 0.696-1.772 0.906-2.299 0.102-0.266 0.184-0.471 0.241-0.614 0.031-0.072 0.051-0.128 0.072-0.169 0.005-0.020 0.010-0.036 0.015-0.046s0.005-0.015 0.010-0.015c0-0.010 0-0.010 35.656 14.249s35.656 14.259 35.656 14.259 0 0 0 0-0.005 0.010-0.010 0.020c-0.005 0.020-0.020 0.056-0.041 0.108-0.041 0.108-0.108 0.271-0.2 0.497-0.174 0.445-0.445 1.132-0.804 2.048-0.717 1.828-1.782 4.562-3.149 8.12-2.729 7.112-6.651 17.505-11.366 30.469-9.436 25.958-22.016 62.131-34.586 102.973-25.528 82.98-49.5 180.563-49.5 251.105h-76.8zM102.4 192c34.346-17.172 34.35-17.167 34.354-17.157 0.002 0.005 0.007 0.015 0.010 0.020 0.008 0.015 0.017 0.036 0.028 0.056 0.022 0.041 0.049 0.097 0.083 0.164 0.067 0.138 0.159 0.323 0.274 0.558 0.23 0.466 0.555 1.132 0.968 1.981 0.825 1.705 2.002 4.168 3.482 7.337 2.957 6.339 7.124 15.508 12.098 27.116 9.938 23.188 23.138 56.192 36.334 95.78 26.239 78.72 53.171 185.537 53.171 293.745h-76.8c0-96.592-24.268-194.575-49.229-269.455-12.404-37.212-24.804-68.209-34.066-89.82-4.627-10.793-8.459-19.22-11.102-24.883-1.321-2.831-2.344-4.972-3.019-6.364-0.337-0.701-0.588-1.208-0.745-1.531-0.079-0.159-0.134-0.271-0.165-0.333-0.016-0.031-0.025-0.051-0.028-0.056-0.002-0.005-0.002-0.005-0.001 0 0.001 0 0.003 0.005 0.003 0.005 0.003 0.005 0.006 0.010 34.352-17.162zM921.6 230.4h-819.2v-76.8h819.2v76.8zM512 947.2c-188.529 0-345.6-157.070-345.6-345.6h76.8c0 146.114 122.686 268.8 268.8 268.8v76.8zM857.6 601.6c0 188.529-157.071 345.6-345.6 345.6v-76.8c146.115 0 268.8-122.686 268.8-268.8h76.8z" />
<glyph unicode="&#xe903;" glyph-name="brush" d="M430.703 212.716l-38.399 0.271-0.001-0.092 38.4-0.179zM51.2 113.454l2.506 38.318c-14.171 0.927-27.696-6.042-35.165-18.12s-7.663-27.295-0.504-39.557l33.163 19.359zM964.065 803.299v0zM788.966 543.786v0zM629.289 701.56v0zM891.935 874.569v0zM420.806 263.992v0zM309.695 349.947c-6.904-20.055 3.754-41.907 23.806-48.814 20.052-6.902 41.905 3.753 48.81 23.808l-72.616 25.006zM392.306 213.663c0-0.225-0.001-0.451-0.003-0.676l76.798-0.538c0.003 0.404 0.004 0.809 0.004 1.213h-76.8zM198.058 213.663c0 52.311 43.048 95.508 97.124 95.508v76.8c-95.62 0-173.924-76.713-173.924-172.308h76.8zM58.015 74.829c76.908 0 140.044 61.727 140.044 138.834h-76.8c0-33.828-27.879-62.034-63.244-62.034v-76.8zM48.694 75.136c3.086-0.205 6.194-0.307 9.321-0.307v76.8c-1.453 0-2.89 0.051-4.308 0.143l-5.012-76.636zM227.419 51.2c-61.283 0-114.618 32.891-143.056 81.613l-66.327-38.717c41.796-71.603 119.992-119.695 209.383-119.695v76.8zM392.303 212.895c-0.414-88.94-73.646-161.695-164.883-161.695v-76.8c132.668 0 241.068 106.081 241.683 238.141l-76.799 0.353zM932.234 824.776l-175.099-259.513 63.667-42.955 175.094 259.513-63.662 42.955zM650.414 669.492l262.646 173.008-42.25 64.136-262.641-173.008 42.245-64.136zM934.4 831.807c0-2.462-0.737-4.908-2.166-7.031l63.662-42.955c9.958 14.761 15.304 32.155 15.304 49.986h-76.8zM920.786 844.8c7.956 0 13.614-6.25 13.614-12.993h76.8c0 50.024-40.914 89.793-90.414 89.793v-76.8zM920.786 921.6c-17.746 0-35.133-5.189-49.976-14.964l42.25-64.136c2.248 1.481 4.936 2.299 7.726 2.299v76.8zM295.182 309.171c40.939 0 75.765-24.863 90.104-59.766l71.039 29.179c-25.929 63.119-88.423 107.387-161.144 107.387v-76.8zM385.287 249.405c4.517-10.998 7.019-23.040 7.019-35.743h76.8c0 22.902-4.53 44.841-12.78 64.922l-71.039-29.179zM757.135 565.263c-53.632-79.489-123.233-146.161-203.684-196.408l40.684-65.137c89.457 55.869 166.932 130.057 226.668 218.59l-63.667 42.955zM553.452 368.855c-45.186-28.221-93.791-51.256-144.9-68.47l24.509-72.781c56.797 19.123 110.826 44.728 161.074 76.114l-40.684 65.137zM403.799 453.815c60.054-26.471 108.308-74.213 134.999-133.328l69.996 31.601c-34.555 76.532-96.788 137.961-174.018 172.003l-30.977-70.276zM382.311 324.941c17.401 50.534 40.723 98.612 69.323 143.318l-64.694 41.388c-31.856-49.796-57.847-103.369-77.245-159.699l72.616-25.006zM451.635 468.259c50.806 79.417 118.267 148.199 198.779 201.233l-42.245 64.136c-89.539-58.98-164.639-135.524-221.229-223.982l64.694-41.388z" />
<glyph unicode="&#xe904;" glyph-name="calendar" d="M723.005 809.167h-569.405c-28.277 0-51.2-22.923-51.2-51.2v-98.248h819.2v98.249c0 28.277-22.922 51.199-51.2 51.199h-147.395zM325.8 947.2c-21.208 0-38.4-17.192-38.4-38.4v0-61.2h-133.8c-10.641-0.030-20.26-4.384-27.197-11.397l-0.003-0.003c-25.009-9.104-42.007-25.986-51.1-51-6.979-6.953-11.298-16.572-11.3-27.2v0-719.6c0.001-10.678 4.361-20.337 11.397-27.297l0.003-0.003c9.104-24.925 25.975-41.796 50.9-50.9 6.963-7.039 16.622-11.399 27.3-11.4h716.8c10.678 0.001 20.337 4.361 27.297 11.397l0.003 0.003c12.463 4.552 26.657 5.757 35.9 15s10.448 23.437 15 35.9c7.039 6.963 11.399 16.622 11.4 27.3v0 719.6c-0.030 10.641-4.384 20.26-11.397 27.197l-0.003 0.003c-4.55 12.498-5.735 26.735-15 36-9.243 9.243-23.437 10.448-35.9 15-0.042 0.015-0.056 0.085-0.102 0.1-6.952 6.979-16.57 11.298-27.197 11.3h-109v61.2c0 21.208-17.192 38.4-38.4 38.4v0c-21.208 0-38.4-17.192-38.4-38.4v0-61.2h-320.4v61.2c0 21.208-17.192 38.4-38.4 38.4v0zM153.6 770.8h716.8c7.526 0 12.8-5.276 12.8-12.8v-59.9h-742.4v59.9c0 7.524 5.276 12.8 12.8 12.8zM140.8 621.3h742.4v-582.9c0-7.526-5.274-12.8-12.8-12.8h-716.8c-7.524 0-12.8 5.275-12.8 12.8zM256 537.6c-21.208 0-38.4-17.192-38.4-38.4v0c0-21.208 17.192-38.4 38.4-38.4v0h512c21.208 0 38.4 17.192 38.4 38.4v0c0 21.208-17.192 38.4-38.4 38.4v0zM256 384c-21.208 0-38.4-17.192-38.4-38.4v0c0-21.208 17.192-38.4 38.4-38.4v0h512c21.208 0 38.4 17.192 38.4 38.4v0c0 21.208-17.192 38.4-38.4 38.4v0zM256 230.4c-21.208 0-38.4-17.192-38.4-38.4v0c0-21.208 17.192-38.4 38.4-38.4v0h512c21.208 0 38.4 17.192 38.4 38.4v0c0 21.208-17.192 38.4-38.4 38.4v0z" />
<glyph unicode="&#xe905;" glyph-name="calendar-2" d="M85.344 525.334c-13.255 0-24-10.746-24-24s10.745-24 24-24v48zM696.010 928c0 13.255-10.746 24-24 24s-24-10.745-24-24h48zM648.010 714.667c0-13.255 10.746-24 24-24s24 10.745 24 24h-48zM376.010 928c0 13.255-10.746 24-24 24s-23.999-10.745-23.999-24h47.999zM328.010 714.667c0-13.255 10.745-24 23.999-24s24 10.745 24 24h-47.999zM938.678 525.334h-853.335v-48h853.335v48zM109.344 74.666v640.001h-48v-640.001h48zM192.011-8c-45.656 0-82.667 37.011-82.667 82.666h-48c0-72.163 58.501-130.666 130.667-130.666v48zM192.011 845.333c-72.165 0-130.667-58.501-130.667-130.667h48c0 45.656 37.011 82.667 82.667 82.667v48zM962.678 74.666v426.669h-48v-426.669h48zM962.678 501.334v213.332h-48v-213.332h48zM832.010-56c72.166 0 130.669 58.502 130.669 130.666h-48c0-45.654-37.011-82.666-82.669-82.666v-48zM832.010 797.333c45.658 0 82.669-37.011 82.669-82.667h48c0 72.165-58.502 130.667-130.669 130.667v-48zM832.010 845.333h-639.999v-48h639.999v48zM832.010-8h-639.999v-48h639.999v48zM648.010 928v-213.333h48v213.333h-48zM328.010 928v-213.333h47.999v213.333h-47.999z" />
<glyph unicode="&#xe906;" glyph-name="camera" d="M512 866.909c-41.468 0-82.708-1.075-123.636-3.273-44.895-2.411-85.107-27.168-108.545-64.727l-38.182-61.273c-11.18-17.917-30.147-30.024-51.727-33.091-17.939-2.549-35.745-5.307-53.545-8.273-0.013 0-0.029 0-0.045 0s-0.032 0-0.048 0h0.002c-66.007-10.999-113-69.348-113-135.364v-392.182c0-76.704 62.93-139.636 139.636-139.636h698.182c76.705 0 139.636 62.931 139.636 139.636v392.182c0 65.987-47.036 124.329-113 135.364h-0.093c-17.769 2.961-35.638 5.728-53.543 8.273-21.582 3.067-40.545 15.173-51.727 33.091l-38.182 61.273c-23.438 37.558-63.651 62.317-108.545 64.727-40.927 2.198-82.168 3.273-123.636 3.273zM512 797.091c40.219 0 80.229-1.051 119.909-3.182 21.563-1.158 41.203-13.097 53-32l38.273-61.273c22.433-35.947 59.808-59.315 101.091-65.182 17.384-2.471 34.661-5.125 51.909-8 32.007-5.334 54.727-33.196 54.727-66.545v-392.182c0-38.97-30.849-69.818-69.818-69.818h-698.182c-38.972 0-69.818 30.848-69.818 69.818v392.182c0 33.349 22.722 61.212 54.727 66.545 17.252 2.875 34.524 5.53 51.909 8 41.282 5.866 78.658 29.232 101.091 65.182l38.273 61.273c11.796 18.902 31.437 30.842 53 32 39.683 2.131 79.69 3.182 119.909 3.182zM512 657.455c-134.545 0-244.364-109.819-244.364-244.364s109.819-244.364 244.364-244.364c134.545 0 244.364 109.818 244.364 244.364s-109.818 244.364-244.364 244.364zM512 587.636c96.813 0 174.545-77.733 174.545-174.545s-77.732-174.545-174.545-174.545c-96.812 0-174.545 77.732-174.545 174.545s77.733 174.545 174.545 174.545zM826.182 552.727c-19.279-0.002-34.907-15.63-34.909-34.909v-0.364c0.002-19.279 15.63-34.907 34.909-34.909h0.363c19.279 0.002 34.907 15.63 34.909 34.909v0.364c-0.002 19.279-15.63 34.907-34.909 34.909zM826.363 552.182l-14.219-36.734 14.219-32.357 9.171 32.419z" />
<glyph unicode="&#xe907;" glyph-name="camera-reverse" d="M764.5 885.167c-8.741-0.989-16.303-5.368-21.452-11.771l-0.048-0.062-85.333-106.667c0.065-0.915 0.155-1.717 0.273-2.509l-0.022 0.176c-4.009-4.805-6.647-10.881-7.243-17.544l-0.009-0.123c0.604-6.786 3.242-12.861 7.292-17.718l-0.042 0.051c-0.097-0.617-0.186-1.419-0.246-2.229l-0.006-0.105 85.333-106.667c5.914-7.355 14.911-12.023 24.998-12.023 7.598 0 14.577 2.648 20.065 7.071l-0.061-0.048c7.355 5.914 12.022 14.911 12.022 24.998 0 7.597-2.647 14.576-7.070 20.064l0.048-0.061-43.75 54.667h146.75c6.271 0 10.667-4.396 10.667-10.667v-512c0-6.272-4.395-10.667-10.667-10.667h-426.667c-17.673 0-32-14.327-32-32v0c0-17.673 14.327-32 32-32v0h426.667c40.858 0 74.667 33.809 74.667 74.667v512c0 40.858-33.808 74.667-74.667 74.667h-146.75l43.75 54.667c4.375 5.427 7.022 12.405 7.022 20.002 0 10.087-4.667 19.084-11.96 24.949l-0.062 0.048c-5.427 4.376-12.407 7.025-20.006 7.025-1.231 0-2.446-0.070-3.641-0.205l0.146 0.013zM128 778.667c-40.858 0-74.667-33.808-74.667-74.667v-512c0-40.859 33.809-74.667 74.667-74.667h146.75l-43.75-54.667c-4.375-5.427-7.022-12.405-7.022-20.002 0-10.087 4.667-19.084 11.96-24.949l0.062-0.048c5.427-4.375 12.405-7.022 20.002-7.022 10.087 0 19.084 4.667 24.949 11.96l0.048 0.062 85.333 106.667c0.664 1.225 1.311 2.683 1.847 4.193l0.069 0.224c1.336 2.156 2.47 4.643 3.274 7.273l0.060 0.227c0.54 1.876 0.926 4.065 1.078 6.319l0.005 0.098c0.159 0.338 0.384 0.888 0.594 1.446l0.073 0.221c-0.184 1.158-0.388 2.115-0.633 3.056l0.049-0.222c-0.221 1.749-0.543 3.302-0.972 4.809l0.055-0.226c-0.157 1.091-0.332 1.995-0.544 2.884l0.044-0.218c-0.121 0.808-0.238 1.43-0.372 2.045l0.039-0.211c-1.082 2.126-2.272 3.956-3.632 5.645l0.048-0.062c-0.405 1.059-0.77 1.882-1.167 2.687l0.084-0.187-85.333 106.667c-5.914 7.355-14.911 12.022-24.998 12.022-7.597 0-14.576-2.647-20.064-7.070l0.061 0.048c-7.355-5.914-12.022-14.911-12.022-24.998 0-7.597 2.647-14.576 7.070-20.064l-0.048 0.062 43.75-54.667h-146.75c-6.27 0-10.667 4.396-10.667 10.667v512c0 6.27 4.397 10.667 10.667 10.667h426.667c17.673 0 32 14.327 32 32v0c0 17.673-14.327 32-32 32v0zM512 618.667c-93.877 0-170.667-76.789-170.667-170.667s76.789-170.667 170.667-170.667c93.877 0 170.667 76.789 170.667 170.667s-76.789 170.667-170.667 170.667zM512 554.667c59.289 0 106.667-47.377 106.667-106.667s-47.377-106.667-106.667-106.667c-59.289 0-106.667 47.377-106.667 106.667s47.377 106.667 106.667 106.667z" />
<glyph unicode="&#xe908;" glyph-name="cancel" d="M993.939 862.059c18.746 18.745 18.746 49.137 0 67.882s-49.133 18.745-67.878 0l67.878-67.882zM30.059 33.939c-18.745-18.746-18.745-49.133 0-67.878s49.137-18.746 67.882 0l-67.882 67.878zM97.942 929.941c-18.745 18.745-49.137 18.745-67.882 0s-18.745-49.137 0-67.882l67.882 67.882zM926.061-33.939c18.746-18.746 49.139-18.746 67.885 0 18.739 18.746 18.739 49.133 0 67.878l-67.885-67.878zM926.061 929.941l-896.002-896.002 67.882-67.878 895.998 895.998-67.878 67.882zM30.060 862.059l896.001-895.998 67.885 67.878-896.004 896.002-67.882-67.882z" />
<glyph unicode="&#xe909;" glyph-name="cancel-mini" d="M983.919 829.412c24.994 24.993 24.994 65.516 0 90.51s-65.51 24.994-90.505 0l90.505-90.51zM40.079 66.586c-24.994-24.994-24.994-65.51 0-90.505s65.516-24.994 90.51 0l-90.51 90.505zM130.589 919.921c-24.993 24.994-65.516 24.994-90.51 0s-24.994-65.516 0-90.51l90.51 90.51zM893.414-23.919c24.994-24.994 65.51-24.994 90.505 0s24.994 65.51 0 90.505l-90.505-90.505zM893.414 919.921l-853.336-853.336 90.51-90.505 853.331 853.331-90.505 90.51zM40.079 829.412l853.335-853.331 90.505 90.505-853.33 853.336-90.51-90.51z" />
<glyph unicode="&#xe90a;" glyph-name="change-place" d="M73.143 722.286c-30.297 0-54.857-24.56-54.857-54.857s24.56-54.857 54.857-54.857v109.714zM950.857 612.571c30.296 0 54.857 24.561 54.857 54.857s-24.561 54.857-54.857 54.857v-109.714zM73.143 283.429c-30.297 0-54.857-24.561-54.857-54.857s24.56-54.857 54.857-54.857v109.714zM950.857 173.714c30.296 0 54.857 24.561 54.857 54.857s-24.561 54.857-54.857 54.857v-109.714zM73.143 612.571h877.714v109.714h-877.714v-109.714zM73.143 173.714h877.714v109.714h-877.714v-109.714z" />
<glyph unicode="&#xe90b;" glyph-name="checkbox-on" d="M170.667 832h682.667c23.564 0 42.667-19.103 42.667-42.667v-682.667c0-23.564-19.103-42.667-42.667-42.667h-682.667c-23.564 0-42.667 19.103-42.667 42.667v682.667c0 23.564 19.103 42.667 42.667 42.667zM747.964 553.373c12.497 12.497 12.497 32.758 0 45.255s-32.759 12.497-45.257 0l45.257-45.255zM426.667 277.333l-22.626-22.63c12.497-12.493 32.759-12.493 45.256 0.004l-22.63 22.626zM321.294 427.959c-12.497 12.497-32.758 12.497-45.255 0s-12.497-32.755 0-45.252l45.255 45.252zM702.707 598.627l-298.666-298.668 45.256-45.252 298.667 298.665-45.257 45.255zM276.039 382.707l128.002-128.004 45.256 45.257-128.003 128-45.255-45.252z" />
<glyph unicode="&#xe90c;" glyph-name="computer" d="M396.8 179.2c0 21.207-17.192 38.4-38.4 38.4s-38.4-17.193-38.4-38.4h76.8zM313.412 19.011v0zM281.6-12.8l-27.153 27.151c-10.982-10.982-14.268-27.5-8.324-41.846 5.944-14.351 19.945-23.706 35.477-23.706v38.4zM742.4-12.8v-38.4c15.529 0 29.532 9.354 35.476 23.706 5.944 14.346 2.657 30.863-8.325 41.846l-27.151-27.151zM710.589 19.011v0zM704 179.2c0 21.207-17.193 38.4-38.4 38.4s-38.4-17.193-38.4-38.4h76.8zM320 179.2v-51.579h76.8v51.579h-76.8zM286.259 46.162l-31.812-31.811 54.306-54.303 31.812 31.811-54.306 54.303zM281.6-51.2h460.8v76.8h-460.8v-76.8zM769.551 14.351l-31.811 31.816-54.308-54.308 31.816-31.811 54.303 54.303zM704 127.621v51.579h-76.8v-51.579h76.8zM737.741 46.167c-21.601 21.601-33.741 50.903-33.741 81.454h-76.8c0-50.918 20.229-99.753 56.238-135.762l54.303 54.308zM320 127.621c0-30.551-12.137-59.853-33.741-81.459l54.306-54.303c36.007 36.009 56.236 84.844 56.236 135.762h-76.8zM166.4 870.4h691.2v76.8h-691.2v-76.8zM934.4 793.6v-499.2h76.8v499.2h-76.8zM857.6 217.6h-691.2v-76.8h691.2v76.8zM89.6 294.4v499.2h-76.8v-499.2h76.8zM166.4 217.6c-42.416 0-76.8 34.386-76.8 76.8h-76.8c0-84.833 68.769-153.6 153.6-153.6v76.8zM934.4 294.4c0-42.414-34.386-76.8-76.8-76.8v-76.8c84.833 0 153.6 68.767 153.6 153.6h-76.8zM857.6 870.4c42.414 0 76.8-34.384 76.8-76.8h76.8c0 84.831-68.767 153.6-153.6 153.6v-76.8zM166.4 947.2c-84.831 0-153.6-68.769-153.6-153.6h76.8c0 42.416 34.384 76.8 76.8 76.8v76.8zM934.4 793.6v-345.6h76.8v345.6h-76.8zM857.6 371.2h-691.2v-76.8h691.2v76.8zM89.6 448v345.6h-76.8v-345.6h76.8zM166.4 371.2c-42.416 0-76.8 34.386-76.8 76.8h-76.8c0-84.833 68.769-153.6 153.6-153.6v76.8zM934.4 448c0-42.414-34.386-76.8-76.8-76.8v-76.8c84.833 0 153.6 68.767 153.6 153.6h-76.8z" />
<glyph unicode="&#xe90d;" glyph-name="copy" d="M395.636 948.364c-44.573 0-81.455-36.882-81.455-81.455v-69.818c0-19.28 15.629-34.909 34.909-34.909v0c19.28 0 34.909 15.629 34.909 34.909v0 69.818c0 6.839 4.797 11.636 11.636 11.636h257.455c3.478 0 6.693-1.521 8.909-4.182l208-249.545c1.746-2.095 2.727-4.723 2.727-7.455v-355.545c0-6.842-4.794-11.636-11.636-11.636h-69.818c-19.28 0-34.909-15.629-34.909-34.909v0c0-19.28 15.629-34.909 34.909-34.909v0h69.818c44.572 0 81.455 36.882 81.455 81.455v355.545c0 19.046-6.71 37.456-18.909 52.091l-208 249.636c-15.461 18.523-38.423 29.273-62.545 29.273zM162.909 715.636c-44.573 0-81.455-36.882-81.455-81.455v-605.091c0-44.573 36.883-81.455 81.455-81.455h465.455c44.572 0 81.455 36.882 81.455 81.455v399.636c0 21.593-8.552 42.28-23.818 57.545l-205.545 205.545c-15.266 15.266-35.956 23.818-57.545 23.818zM162.909 645.818h260c3.099 0 5.991-1.173 8.182-3.364l205.545-205.545c2.189-2.189 3.364-5.087 3.364-8.182v-399.636c0-6.842-4.794-11.636-11.636-11.636h-465.455c-6.84 0-11.636 4.795-11.636 11.636v605.091c0 6.839 4.797 11.636 11.636 11.636z" />
<glyph unicode="&#xe90e;" glyph-name="discord" d="M348.291 422.794c0-37.432 26.21-67.825 57.602-67.825 32.001 0 57.602 30.392 57.602 67.825 0.305 37.108-25.296 67.82-57.602 67.82-32.001 0-57.602-30.392-57.602-67.82zM560.717 422.794c0-37.432 26.209-67.825 57.6-67.825 32.307 0 57.6 30.392 57.6 67.825 0.307 37.108-25.293 67.82-57.6 67.82-32 0-57.6-30.392-57.6-67.82zM512-64c282.767 0 512 229.233 512 512 0 282.77-229.233 512-512 512-282.77 0-512-229.23-512-512 0-282.767 229.23-512 512-512zM603.382 703.998c45.716-8.318 89.605-22.714 130.14-42.549 0.609 0 0.911-0.32 1.219-0.64 72.228-111.651 107.889-237.375 94.479-382.302 0-0.635-0.307-1.275-0.916-1.597-54.856-42.23-107.581-67.82-160.005-84.777-0.911-0.323-1.828 0-2.739 0.317-11.889 17.597-22.861 36.152-32.614 55.67-0.302 0.957 0 2.555 1.219 2.877 17.372 7.040 34.135 15.037 49.987 24.955 1.521 0.64 1.521 2.555 0.302 3.517-1.674 1.439-3.354 2.801-5.028 4.157-1.674 1.362-3.354 2.719-5.028 4.157-0.609 0.64-1.526 0.64-2.135 0.323-103.619-50.227-216.691-50.227-321.532 0-0.609 0.317-1.524 0.317-2.134-0.323-1.676-1.275-3.352-2.637-5.028-3.999-1.676-1.357-3.353-2.719-5.029-3.999-0.914-0.957-0.914-2.877 0.305-3.517 16.153-9.595 32.611-17.915 49.982-24.955 1.219-0.317 1.829-1.597 1.219-2.877-9.448-19.512-20.42-38.072-32.61-55.665-0.305-0.64-1.219-0.963-2.134-0.64-52.115 16.957-104.841 42.547-159.699 84.777-0.61 0.323-0.914 0.963-0.914 1.597-11.276 125.409 11.581 252.097 94.479 382.302 0.305 0.32 0.609 0.64 0.914 0.64 40.839 19.835 84.421 34.231 130.137 42.549 0.914 0 1.829-0.32 2.134-0.959 5.791-10.557 12.191-23.994 16.458-34.871 48.489 7.678 97.799 7.678 146.29 0 4.265 10.557 10.665 24.314 16.154 34.871 0.266 0.314 0.594 0.562 0.963 0.728s0.768 0.245 1.167 0.231z" />
<glyph unicode="&#xe90f;" glyph-name="doc-ok" d="M692.756 420.849c14.991 14.996 14.991 39.308 0 54.304-14.996 14.996-39.311 14.996-54.308 0l54.308-54.304zM450.559 232.96l-27.154-27.156c7.202-7.199 16.969-11.244 27.153-11.244s19.952 4.045 27.153 11.244l-27.153 27.156zM385.556 352.271c-14.995 14.996-39.309 14.996-54.306 0s-14.997-39.306-0.001-54.303l54.307 54.303zM638.449 475.153l-215.042-215.042 54.306-54.308 215.044 215.045-54.308 54.304zM331.25 297.969l92.156-92.165 54.307 54.308-92.156 92.16-54.307-54.303zM832 780.8v-742.4h76.8v742.4h-76.8zM819.2 25.6h-614.4v-76.8h614.4v76.8zM192 38.4v742.4h-76.8v-742.4h76.8zM204.8 793.6h153.6v76.8h-153.6v-76.8zM819.2 870.4h-153.6v-76.8h153.6v76.8zM409.6 870.4h204.8v76.8h-204.8v-76.8zM614.4 793.6h-204.8v-76.8h204.8v76.8zM396.8 806.4v25.6h-76.8v-25.6h76.8zM396.8 832v25.6h-76.8v-25.6h76.8zM627.2 857.6v-25.6h76.8v25.6h-76.8zM627.2 832v-25.6h76.8v25.6h-76.8zM409.6 793.6c-7.069 0-12.8 5.731-12.8 12.8h-76.8c0-49.485 40.115-89.6 89.6-89.6v76.8zM614.4 716.8c49.485 0 89.6 40.115 89.6 89.6h-76.8c0-7.069-5.729-12.8-12.8-12.8v-76.8zM614.4 870.4c7.071 0 12.8-5.731 12.8-12.8h76.8c0 49.485-40.115 89.6-89.6 89.6v-76.8zM192 780.8c0 7.069 5.731 12.8 12.8 12.8v76.8c-49.485 0-89.6-40.115-89.6-89.6h76.8zM204.8 25.6c-7.069 0-12.8 5.729-12.8 12.8h-76.8c0-49.485 40.115-89.6 89.6-89.6v76.8zM409.6 947.2c-49.485 0-89.6-40.115-89.6-89.6h76.8c0 7.069 5.731 12.8 12.8 12.8v76.8zM832 38.4c0-7.071-5.729-12.8-12.8-12.8v-76.8c49.485 0 89.6 40.115 89.6 89.6h-76.8zM908.8 780.8c0 49.485-40.115 89.6-89.6 89.6v-76.8c7.071 0 12.8-5.731 12.8-12.8h76.8z" />
<glyph unicode="&#xe910;" glyph-name="dots" d="M384 448c0 70.692 57.308 128 128 128s128-57.308 128-128c0-70.692-57.308-128-128-128s-128 57.308-128 128zM384 832c0 70.692 57.308 128 128 128s128-57.308 128-128c0-70.692-57.308-128-128-128s-128 57.308-128 128zM384 64c0 70.694 57.308 128 128 128s128-57.306 128-128c0-70.694-57.308-128-128-128s-128 57.306-128 128z" />
<glyph unicode="&#xe911;" glyph-name="down-arrow" d="M130.588 706.588c-24.993 24.994-65.516 24.994-90.51 0s-24.994-65.516 0-90.51l90.51 90.51zM512 234.667l-45.255-45.255c24.993-24.993 65.516-24.993 90.51 0l-45.255 45.255zM983.919 616.079c24.994 24.993 24.994 65.516 0 90.51s-65.51 24.994-90.505 0l90.505-90.51zM40.079 616.079l426.667-426.667 90.51 90.51-426.667 426.667-90.51-90.51zM557.255 189.412l426.664 426.667-90.505 90.51-426.669-426.667 90.51-90.51z" />
<glyph unicode="&#xe912;" glyph-name="download" d="M512 958.476c-22.723 0-41.143-18.42-41.143-41.143v0-559.048l-149.238 149.238c-7.441 7.419-17.709 12.006-29.048 12.006s-21.607-4.587-29.049-12.007l0.001 0.001c-7.419-7.441-12.006-17.709-12.006-29.048s4.587-21.607 12.007-29.049l219.428-219.428c7.429-7.452 17.697-12.070 29.043-12.095h0.005c11.351 0.026 21.618 4.644 29.047 12.094l219.43 219.43c7.419 7.441 12.006 17.709 12.006 29.048s-4.587 21.607-12.007 29.049l0.001-0.001c-7.441 7.419-17.709 12.006-29.048 12.006s-21.607-4.587-29.049-12.007l-149.237-149.237v559.048c0 22.723-18.42 41.143-41.143 41.143v0zM73.143 300.19c-22.723 0-41.143-18.42-41.143-41.143v0-164.571c0-82.827 68.028-150.857 150.857-150.857h658.286c82.828 0 150.857 68.029 150.857 150.857v164.571c0 22.723-18.42 41.143-41.143 41.143v0c-22.723 0-41.143-18.42-41.143-41.143v0-164.571c0-38.355-30.217-68.571-68.571-68.571h-658.286c-38.357 0-68.571 30.216-68.571 68.571v164.571c0 22.723-18.42 41.143-41.143 41.143v0z" />
<glyph unicode="&#xe913;" glyph-name="edit" d="M931.996 728.636v0zM931.996 652.417v0zM69.68 221.259v0zM94.316 43.789v139.361h-80.842v-139.361h80.842zM764.055 839.414l139.361-139.36 57.161 57.164-139.361 139.36-57.161-57.164zM247.15 30.316h-139.36v-80.842h139.36v80.842zM903.416 680.999l-123.575-123.575 57.161-57.164 123.575 123.575-57.161 57.164zM779.841 557.424l-523.164-523.163 57.164-57.161 523.161 523.16-57.161 57.164zM98.262 192.679l523.161 523.16-57.161 57.164-523.164-523.163 57.164-57.161zM621.422 715.839l123.575 123.575-57.161 57.164-123.575-123.575 57.161-57.164zM837.001 557.424l-215.579 215.579-57.161-57.164 215.579-215.579 57.161 57.164zM247.15-50.526c25.014 0 49.003 9.938 66.691 27.626l-57.164 57.161c-2.527-2.528-5.954-3.945-9.527-3.945v-80.842zM903.416 700.054c5.26-5.262 5.26-13.793 0-19.055l57.161-57.164c36.832 36.833 36.832 96.55 0 133.383l-57.161-57.164zM821.216 896.578c-36.832 36.833-96.547 36.833-133.379 0l57.161-57.164c5.266 5.262 13.792 5.262 19.057 0l57.161 57.164zM94.316 183.15c0 3.573 1.42 7.001 3.946 9.529l-57.164 57.161c-17.688-17.688-27.624-41.677-27.624-66.689h80.842zM13.474 43.789c0-52.089 42.227-94.316 94.316-94.316v80.842c-7.441 0-13.474 6.031-13.474 13.474h-80.842z" />
<glyph unicode="&#xe914;" glyph-name="export" d="M512 947.81c-4.872-1.017-9.183-2.869-12.99-5.417l0.132 0.083c-4.592-0.852-8.684-2.444-12.354-4.663l0.164 0.092-0.762-0.762h-0.095c0-0.014 0-0.031 0-0.048s0-0.033 0-0.050v0.003l-207.143-194.19c-7.143-6.692-11.594-16.183-11.594-26.714 0-9.679 3.76-18.479 9.898-25.020l-0.018 0.020c6.688-7.113 16.16-11.544 26.666-11.544 9.701 0 18.521 3.777 25.067 9.942l-0.019-0.017 146.476 137.333v-476.381c0-20.198 16.374-36.571 36.571-36.571v0c20.198 0 36.571 16.374 36.571 36.571v0 476.381l146.476-137.333c6.528-6.147 15.347-9.925 25.048-9.925 10.506 0 19.978 4.43 26.648 11.525l0.018 0.019c6.12 6.522 9.88 15.322 9.88 25.001 0 10.531-4.451 20.022-11.574 26.695l-0.020 0.019-207.143 194.286c0.144-0.064 0.081-0.032 0.019-0.001l-0.209 0.096-0.666 0.667c-0.042 0-0.093 0-0.143 0s-0.1 0-0.151 0h0.008c-6.021 5.516-13.938 9.049-22.67 9.52l-0.092 0.004c-0.199 0.042-0.621 0.109-1.045 0.168l-0.193 0.022c0.001 0.010-0.254 0.076-0.511 0.138l-0.251 0.052zM170.667 582.095c-46.695 0-85.333-38.638-85.333-85.333v-463.238c0-46.695 38.639-85.333 85.333-85.333h682.667c46.695 0 85.333 38.639 85.333 85.333v463.238c0 46.694-38.638 85.333-85.333 85.333h-107.238c-20.198 0-36.571-16.374-36.571-36.571v0c0-20.198 16.374-36.571 36.571-36.571v0h107.238c7.167 0 12.19-5.024 12.19-12.19v-463.238c0-7.168-5.023-12.19-12.19-12.19h-682.667c-7.166 0-12.19 5.024-12.19 12.19v463.238c0 7.165 5.025 12.19 12.19 12.19h107.238c20.198 0 36.571 16.374 36.571 36.571v0c0 20.198-16.374 36.571-36.571 36.571v0z" />
<glyph unicode="&#xe915;" glyph-name="eye-off" d="M972.8 448.067l36.787-11.007c2.15 7.185 2.15 14.842 0 22.027l-36.787-11.019zM51.2 447.932l-36.788 11.008c-2.15-7.185-2.149-14.842 0.003-22.027l36.785 11.019zM174.094 595.030c13.744 16.151 11.792 40.387-4.359 54.13s-40.387 11.792-54.13-4.359l58.489-49.771zM653.45 87.68c20.419 5.74 32.317 26.941 26.578 47.36s-26.947 32.312-47.36 26.578l20.782-73.938zM127.059 884.833c-15.041 14.952-39.354 14.88-54.306-0.161s-14.88-39.354 0.161-54.306l54.145 54.467zM896.983 11.167c15.043-14.95 39.352-14.879 54.308 0.159 14.95 15.043 14.879 39.357-0.164 54.308l-54.144-54.467zM609.137 351.457v0zM512.020 546.134c54.861 0 98.944-44.15 98.944-98.134h76.8c0 96.827-78.899 174.934-175.744 174.934v-76.8zM512.020 750.934c200.438 0 369.649-132.455 423.992-313.885l73.574 22.038c-63.892 213.285-262.533 368.647-497.567 368.647v-76.8zM511.98 145.065c-200.439 0-369.649 132.454-423.995 313.887l-73.57-22.038c63.889-213.287 262.531-368.649 497.565-368.649v76.8zM87.988 436.925c17.58 58.75 47.215 112.4 86.106 158.105l-58.489 49.771c-45.631-53.624-80.493-116.681-101.193-185.86l73.577-22.015zM632.668 161.618c-38.318-10.772-78.792-16.553-120.688-16.553v-76.8c48.988 0 96.45 6.758 141.47 19.415l-20.782 73.938zM268.803 678.591c69.751 45.719 153.29 72.343 243.217 72.343v76.8c-105.311 0-203.417-31.228-285.318-84.911l42.101-64.232zM72.914 830.367l147.766-146.893 54.145 54.467-147.766 146.893-54.145-54.467zM749.199 158.075l147.784-146.908 54.144 54.467-147.784 146.908-54.144-54.467zM936.013 459.075c-29.937-100.050-94.853-185.314-180.792-241.649l42.107-64.23c100.716 66.022 177.014 166.067 212.26 283.864l-73.574 22.015zM582.067 324.224l167.132-166.149 54.144 54.467-167.132 166.149-54.144-54.467zM610.964 448c0-27.035-10.972-51.492-28.897-69.309l54.144-54.467c31.785 31.596 51.553 75.405 51.553 123.776h-76.8zM220.68 683.474l167.151-166.163 54.145 54.467-167.151 166.163-54.145-54.467zM387.831 517.31l194.236-193.086 54.144 54.467-194.235 193.086-54.145-54.467zM441.976 517.31c17.929 17.823 42.637 28.823 70.044 28.823v76.8c-48.445 0-92.409-19.565-124.189-51.156l54.145-54.467z" />
<glyph unicode="&#xe916;" glyph-name="eye-on" d="M512 844.8c-230.714 0-426.332-155.578-495-370-5.629-17.579-5.64-36.324 0-53.9 68.753-214.265 264.394-369.7 495-369.7 230.716 0 426.332 155.58 495 370 5.62 17.566 5.645 36.316 0 53.9-68.75 214.268-264.394 369.7-495 369.7zM512 768c196.125 0 362.753-131.962 421.9-316.3 0.714-2.225 0.719-4.852 0-7.1-59.076-184.471-225.681-316.6-421.9-316.6-196.125 0-362.75 131.964-421.9 316.3-0.717 2.234-0.716 4.865 0 7.1 59.076 184.472 225.682 316.6 421.9 316.6zM512 629.8c-97.782 0-176.4-82.645-176.4-181.8s78.618-181.8 176.4-181.8c97.779 0 176.4 82.645 176.4 181.8s-78.621 181.8-176.4 181.8zM512 553c54.664 0 99.6-45.804 99.6-105s-44.936-105-99.6-105c-54.67 0-99.6 45.804-99.6 105s44.93 105 99.6 105z" />
<glyph unicode="&#xe917;" glyph-name="files" d="M636.894 852.172c-14.404 14.403-33.937 22.494-54.306 22.494v-262.213c0-23.564 19.102-42.667 42.667-42.667h245.146c0 20.369-8.090 39.903-22.494 54.306l-211.012 228.079zM582.588 874.667h-386.321c-23.564 0-42.667-19.103-42.667-42.667v-768c0-23.565 19.102-42.667 42.667-42.667h631.466c23.565 0 42.667 19.102 42.667 42.667v505.787h-245.146c-23.565 0-42.667 19.103-42.667 42.667v262.213z" />
<glyph unicode="&#xe918;" glyph-name="filter" d="M396.8-12.8h-38.4c0-13.307 6.891-25.667 18.212-32.666 11.321-6.994 25.458-7.634 37.361-1.679l-17.173 34.345zM98.147 874.102v0zM563.517 70.559v0zM660.941 404.941v0zM939.059 683.059v0zM925.855 874.103v0zM932.275 911.963c-136.658 23.174-277.074 35.237-420.27 35.237v-76.8c138.88 0 274.995-11.699 407.429-34.156l12.841 75.719zM1011.2 764.517v53.453h-76.8v-53.453h76.8zM688.092 377.789l278.118 278.116-54.303 54.306-278.118-278.119 54.303-54.303zM665.6 173.599v149.883h-76.8v-149.883h76.8zM413.973-47.145l166.717 83.359-34.345 68.69-166.718-83.359 34.346-68.69zM358.4 323.482v-336.282h76.8v336.282h-76.8zM57.788 655.906l278.117-278.116 54.306 54.303-278.117 278.119-54.306-54.306zM12.8 817.969v-53.452h76.8v53.452h-76.8zM512.005 947.2c-143.204 0-283.619-12.064-420.278-35.238l12.84-75.719c132.434 22.458 268.554 34.157 407.438 34.157v76.8zM89.6 817.969c0 9.404 6.604 16.856 14.967 18.274l-12.84 75.719c-46.201-7.835-78.927-48.053-78.927-93.993h76.8zM112.094 710.212c-14.403 14.403-22.494 33.937-22.494 54.306h-76.8c0-40.737 16.183-79.806 44.988-108.612l54.306 54.306zM435.2 323.482c0 40.74-16.183 79.805-44.988 108.611l-54.306-54.303c14.403-14.403 22.494-33.94 22.494-54.308h76.8zM588.8 173.599c0-29.092-16.435-55.685-42.455-68.695l34.345-68.69c52.040 26.020 84.91 79.206 84.91 137.385h-76.8zM633.789 432.092c-28.805-28.805-44.989-67.871-44.989-108.611h76.8c0 20.367 8.090 39.905 22.492 54.308l-54.303 54.303zM934.4 764.517c0-20.368-8.090-39.903-22.492-54.306l54.303-54.306c28.805 28.806 44.989 67.874 44.989 108.612h-76.8zM919.434 836.244c8.361-1.418 14.966-8.869 14.966-18.274h76.8c0 45.94-32.727 86.158-78.925 93.993l-12.841-75.719z" />
<glyph unicode="&#xe919;" glyph-name="google" d="M512 960c-282.794 0-512-229.248-512-512s229.206-512 512-512c282.752 0 512 229.248 512 512s-229.248 512-512 512zM517.975 148.567c-165.037 0-298.669 133.97-298.669 299.433s133.632 299.434 298.669 299.434c80.64 0 148.050-29.738 199.762-78.037l-84.224-84.395v0.171c-31.36 29.952-71.122 45.312-115.538 45.312-98.562 0-178.647-83.456-178.647-182.315 0-98.771 80.086-182.483 178.647-182.483 89.426 0 150.272 51.282 162.816 121.682h-162.816v116.781h280.96c3.753-20.054 5.76-40.96 5.76-62.893 0-171.090-114.222-292.69-286.72-292.69z" />
<glyph unicode="&#xe91a;" glyph-name="group" d="M56.889 945.778c-23.563-0.002-42.664-19.103-42.667-42.666v0-910.222c0.002-23.563 19.103-42.664 42.666-42.667h170.667c23.564 0 42.667 19.103 42.667 42.667v0c0 23.564-19.103 42.667-42.667 42.667v0h-128v824.889h128c23.564 0 42.667 19.103 42.667 42.667v0c0 23.564-19.103 42.667-42.667 42.667v0zM227.556 718.222c-23.564 0-42.667-19.103-42.667-42.667v0c0-23.564 19.103-42.667 42.667-42.667v0h739.556c23.564 0 42.667 19.103 42.667 42.667v0c0 23.564-19.103 42.667-42.667 42.667v0zM227.556 490.667c-23.564 0-42.667-19.103-42.667-42.667v0c0-23.564 19.103-42.667 42.667-42.667v0h739.556c23.564 0 42.667 19.103 42.667 42.667v0c0 23.564-19.103 42.667-42.667 42.667v0zM227.556 263.111c-23.564 0-42.667-19.103-42.667-42.667v0c0-23.564 19.103-42.667 42.667-42.667v0h739.556c23.564 0 42.667 19.103 42.667 42.667v0c0 23.564-19.103 42.667-42.667 42.667v0z" />
<glyph unicode="&#xe91b;" glyph-name="long-arrow" d="M422.333 832c-0.398 0.013-0.866 0.021-1.335 0.021-11.317 0-21.605-4.406-29.242-11.597l0.022 0.020-364.111-341.333c0-0.066-0.001-0.144-0.001-0.222s0-0.156 0.001-0.234v0.012c-0.489-0.43-0.923-0.829-1.349-1.237l0.015 0.015c-0.471-0.175-0.655-0.25-0.838-0.327l0.282 0.104c-0.002-0.165-0.004-0.36-0.004-0.556s0.001-0.39 0.004-0.585v0.029c-6.92-7.353-11.265-17.198-11.554-28.054l-0.001-0.057c0.291-10.913 4.636-20.758 11.576-28.133l-0.020 0.022c-0.002-0.165-0.004-0.36-0.004-0.556s0.001-0.39 0.004-0.585v0.029c-0.099 0.028 0.084-0.047 0.268-0.121l0.287-0.102c0.41-0.393 0.844-0.792 1.287-1.182l0.047-0.040c0-0.066-0.001-0.144-0.001-0.222s0-0.156 0.001-0.234v0.012l364.111-341.333c7.616-7.172 17.905-11.579 29.223-11.579 12.257 0 23.307 5.169 31.090 13.445l0.021 0.022c7.14 7.609 11.527 17.876 11.527 29.168 0 12.286-5.193 23.359-13.503 31.144l-0.024 0.022-285.333 267.556h802.333c23.564 0 42.667 19.103 42.667 42.667v0c0 23.564-19.103 42.667-42.667 42.667v0h-802.333l285.333 267.556c8.334 7.807 13.527 18.88 13.527 31.166 0 11.292-4.386 21.559-11.548 29.19l0.021-0.023c-7.506 7.982-18.013 13.066-29.71 13.443l-0.068 0.002z" />
<glyph unicode="&#xe91c;" glyph-name="mail" d="M439.592 418.010v0zM584.407 418.010v0zM102.4 768h819.2v76.8h-819.2v-76.8zM934.4 755.2v-614.4h76.8v614.4h-76.8zM921.6 128h-819.2v-76.8h819.2v76.8zM89.6 140.8v614.4h-76.8v-614.4h76.8zM102.4 128c-7.069 0-12.8 5.729-12.8 12.8h-76.8c0-49.485 40.115-89.6 89.6-89.6v76.8zM934.4 140.8c0-7.071-5.729-12.8-12.8-12.8v-76.8c49.485 0 89.6 40.115 89.6 89.6h-76.8zM102.4 844.8c-24.732 0-47.184-10.071-63.357-26.243l54.306-54.306c2.359 2.358 5.506 3.749 9.051 3.749v76.8zM39.043 818.557c-16.172-16.172-26.243-38.625-26.243-63.357h76.8c0 3.545 1.391 6.692 3.749 9.051l-54.306 54.306zM921.6 768c3.543 0 6.692-1.391 9.052-3.749l54.303 54.306c-16.169 16.172-38.625 26.243-63.355 26.243v-76.8zM930.652 764.251c2.355-2.358 3.748-5.506 3.748-9.051h76.8c0 24.732-10.071 47.184-26.245 63.357l-54.303-54.306zM412.44 390.857c54.986-54.985 144.135-54.985 199.119 0l-54.303 54.306c-24.996-24.994-65.517-24.993-90.51 0l-54.306-54.306zM39.043 764.251l373.396-373.393 54.305 54.306-373.396 373.394-54.306-54.306zM611.558 390.857l373.396 373.393-54.303 54.306-373.396-373.394 54.303-54.306z" />
<glyph unicode="&#xe91d;" glyph-name="mirror" d="M512 936.727c19.28 0 34.909-15.629 34.909-34.909v-907.636c0-19.279-15.629-34.909-34.909-34.909s-34.909 15.63-34.909 34.909v907.636c0 19.28 15.629 34.909 34.909 34.909zM186.182 773.818c-6.427 0-11.636-5.21-11.636-11.636v-651.636c0-6.428 5.21-11.636 11.636-11.636h196.417c19.28 0 34.909-15.63 34.909-34.909s-15.629-34.909-34.909-34.909h-196.417c-44.986 0-81.455 36.468-81.455 81.455v651.636c0 44.986 36.468 81.455 81.455 81.455h196.417c19.28 0 34.909-15.629 34.909-34.909s-15.629-34.909-34.909-34.909h-196.417zM640 843.636c-19.279 0-34.909-15.629-34.909-34.909s15.63-34.909 34.909-34.909c19.279 0 34.909 15.629 34.909 34.909s-15.63 34.909-34.909 34.909zM727.273 808.727c0 19.28 15.63 34.909 34.909 34.909s34.909-15.629 34.909-34.909c0-19.28-15.63-34.909-34.909-34.909s-34.909 15.629-34.909 34.909zM884.364 843.636c-19.279 0-34.909-15.629-34.909-34.909s15.63-34.909 34.909-34.909c19.279 0 34.909 15.629 34.909 34.909s-15.63 34.909-34.909 34.909zM849.455 684.605c0 19.28 15.63 34.909 34.909 34.909s34.909-15.629 34.909-34.909c0-19.28-15.63-34.909-34.909-34.909s-34.909 15.629-34.909 34.909zM884.364 595.395c-19.279 0-34.909-15.629-34.909-34.909s15.63-34.909 34.909-34.909c19.279 0 34.909 15.629 34.909 34.909s-15.63 34.909-34.909 34.909zM849.455 436.364c0 19.279 15.63 34.909 34.909 34.909s34.909-15.63 34.909-34.909c0-19.279-15.63-34.909-34.909-34.909s-34.909 15.63-34.909 34.909zM884.364 347.15c-19.279 0-34.909-15.63-34.909-34.909s15.63-34.909 34.909-34.909c19.279 0 34.909 15.63 34.909 34.909s-15.63 34.909-34.909 34.909zM849.455 188.123c0 19.279 15.63 34.909 34.909 34.909s34.909-15.63 34.909-34.909c0-19.279-15.63-34.909-34.909-34.909s-34.909 15.63-34.909 34.909zM884.364 98.909c-19.279 0-34.909-15.63-34.909-34.909s15.63-34.909 34.909-34.909c19.279 0 34.909 15.63 34.909 34.909s-15.63 34.909-34.909 34.909zM605.091 64c0 19.279 15.63 34.909 34.909 34.909s34.909-15.63 34.909-34.909c0-19.279-15.63-34.909-34.909-34.909s-34.909 15.63-34.909 34.909zM762.182 98.909c-19.279 0-34.909-15.63-34.909-34.909s15.63-34.909 34.909-34.909c19.279 0 34.909 15.63 34.909 34.909s-15.63 34.909-34.909 34.909z" />
<glyph unicode="&#xe91e;" glyph-name="ok" d="M983.919 701.412c24.994 24.993 24.994 65.516 0 90.51s-65.51 24.994-90.505 0l90.505-90.51zM341.332 149.332l-45.255-45.255c24.994-24.993 65.516-24.993 90.51 0l-45.255 45.255zM130.583 450.588c-24.994 24.993-65.516 24.993-90.51 0s-24.993-65.516 0-90.51l90.51 90.51zM893.414 791.921l-597.338-597.335 90.51-90.51 597.332 597.335-90.505 90.51zM40.073 360.079l256.003-256.002 90.51 90.51-256.003 256.002-90.51-90.51z" />
<glyph unicode="&#xe91f;" glyph-name="person" d="M307.2 256h409.6v76.8h-409.6v-76.8zM883.2 89.6v-51.2h76.8v51.2h-76.8zM140.8 38.4v51.2h-76.8v-51.2h76.8zM716.8 256c91.899 0 166.4-74.501 166.4-166.4h76.8c0 134.318-108.882 243.2-243.2 243.2v-76.8zM307.2 332.8c-134.316 0-243.2-108.882-243.2-243.2h76.8c0 91.899 74.5 166.4 166.4 166.4v76.8zM678.4 704c0-91.9-74.501-166.4-166.4-166.4v-76.8c134.318 0 243.2 108.884 243.2 243.2h-76.8zM512 537.6c-91.9 0-166.4 74.5-166.4 166.4h-76.8c0-134.316 108.884-243.2 243.2-243.2v76.8zM345.6 704c0 91.9 74.5 166.4 166.4 166.4v76.8c-134.316 0-243.2-108.884-243.2-243.2h76.8zM512 870.4c91.899 0 166.4-74.5 166.4-166.4h76.8c0 134.316-108.882 243.2-243.2 243.2v-76.8zM153.6-51.2h716.8v76.8h-716.8v-76.8zM64 38.4c0-49.485 40.115-89.6 89.6-89.6v76.8c-7.069 0-12.8 5.729-12.8 12.8h-76.8zM883.2 38.4c0-7.071-5.729-12.8-12.8-12.8v-76.8c49.485 0 89.6 40.115 89.6 89.6h-76.8z" />
<glyph unicode="&#xe920;" glyph-name="person-2" d="M938.678-32v-24c13.254 0 24 10.746 24 24h-24zM85.344-32h-24c0-13.254 10.745-24 24-24v24zM298.677 264h426.667v48h-426.667v-48zM914.678 74.666v-106.666h48v106.666h-48zM109.344-32v106.666h-48v-106.666h48zM725.344 264c104.566 0 189.334-84.768 189.334-189.334h48c0 131.075-106.259 237.334-237.334 237.334v-48zM298.677 312c-131.076 0-237.333-106.259-237.333-237.334h48c0 104.566 84.767 189.334 189.333 189.334v48zM701.344 714.667c0-104.567-84.768-189.332-189.334-189.332v-48c131.075 0 237.334 106.256 237.334 237.332h-48zM512.010 525.334c-104.566 0-189.332 84.765-189.332 189.332h-48c0-131.076 106.257-237.332 237.332-237.332v48zM322.677 714.667c0 104.566 84.766 189.333 189.332 189.333v48c-131.075 0-237.332-106.258-237.332-237.333h48zM512.010 904c104.566 0 189.334-84.767 189.334-189.333h48c0 131.076-106.259 237.333-237.334 237.333v-48zM85.344-56h853.335v48h-853.335v-48z" />
<glyph unicode="&#xe921;" glyph-name="phone" d="M972.774 218.793l-38.39 0.957c-0.010-0.317-0.010-0.64-0.010-0.957h38.4zM972.774 80.056h-38.405l0.005-0.159 38.4 0.159zM143.778 908.795v38.4h-0.036l0.036-38.4zM282.793 908.795v-38.402l0.377 0.004-0.377 38.398zM344.135 886.434v0zM328.205 542.984l-27.126 27.18c-12.254-12.23-14.809-31.146-6.239-46.189l33.365 19.010zM606.234 265.503l-18.949-33.398c15.012-8.515 33.859-5.975 46.075 6.221l-27.126 27.177zM950.83 280.883v0zM411.795 647.461v0zM710.917 348.928v0zM871.757-12.436l3.446 38.241c-1.157 0.108-2.314 0.159-3.476 0.159l0.031-38.4zM51.565 807.977l38.4-0.030c0.001 1.166-0.052 2.332-0.157 3.493l-38.243-3.463zM934.374 218.793v-138.737h76.8v138.737h-76.8zM143.778 870.395h139.015v76.8h-139.015v-76.8zM283.171 870.397c13.192 0.13 25.97-4.534 35.954-13.103l50.020 58.278c-24.119 20.701-54.944 31.933-86.728 31.621l0.755-76.796zM294.84 523.975c69.391-121.794 170.427-222.627 292.444-291.87l37.903 66.796c-110.003 62.428-201.078 153.324-263.618 263.093l-66.729-38.019zM921.559 256.031c8.596-10.127 13.153-23.040 12.826-36.28l76.774-1.91c0.799 32.118-10.26 63.401-31.053 87.895l-58.547-49.705zM319.124 857.295c6.277-5.387 14.525-16.548 23.080-34.431 8.258-17.261 15.56-38.155 21.273-60.128 11.903-45.786 14.864-88.068 10.765-107.25l75.105-16.049c7.898 36.959 1.267 93.359-11.54 142.623-6.643 25.551-15.475 51.274-26.322 73.949-10.55 22.053-24.378 44.148-42.34 59.565l-50.020-58.278zM718.915 311.368c19.302 4.111 61.885 1.126 107.889-10.829 22.093-5.74 43.075-13.076 60.38-21.371 17.94-8.602 29.061-16.881 34.376-23.137l58.547 49.705c-15.406 18.145-37.596 32.077-59.72 42.685-22.758 10.911-48.599 19.784-74.266 26.45-49.505 12.867-106.163 19.497-143.196 11.617l15.99-75.121zM633.359 238.326c8.284 8.264 16.604 17.495 24.033 25.595 7.747 8.448 14.956 16.154 22.308 23.076 15.012 14.141 27.438 21.868 39.214 24.371l-15.99 75.121c-32.143-6.84-57.042-25.841-75.878-43.581-9.574-9.016-18.427-18.54-26.26-27.080-8.156-8.893-14.935-16.415-21.678-23.142l54.252-54.359zM374.243 655.485c-2.501-11.704-10.219-24.084-24.393-39.076-6.936-7.336-14.657-14.53-23.125-22.264-8.115-7.412-17.366-15.718-25.646-23.982l54.252-54.36c6.74 6.727 14.277 13.496 23.188 21.636 8.558 7.817 18.101 16.65 27.137 26.207 17.769 18.794 36.826 43.662 43.692 75.79l-75.105 16.049zM871.726 25.964c-440.813-0.348-782.106 344.059-781.761 781.984l-76.8 0.061c-0.378-480.169 375.128-859.224 858.618-858.845l-0.056 76.8zM934.374 79.898c0.123-30.495-28.257-56.878-59.172-54.093l-6.897-76.488c76.175-6.871 143.176 55.316 142.863 130.893l-76.795-0.312zM89.808 811.441c-2.765 30.54 23.346 58.926 54.006 58.955l-0.072 76.8c-75.276-0.071-137.3-66.701-130.421-142.681l76.487 6.926z" />
<glyph unicode="&#xe922;" glyph-name="photo-filter" d="M832 857.6c0 21.208-17.193 38.4-38.4 38.4s-38.4-17.192-38.4-38.4v-204.8c0-21.208 17.193-38.4 38.4-38.4s38.4 17.192 38.4 38.4v64h140.8c21.207 0 38.4 17.192 38.4 38.4s-17.193 38.4-38.4 38.4h-140.8v64zM51.2 793.6c-21.208 0-38.4-17.192-38.4-38.4s17.192-38.4 38.4-38.4h563.2c21.207 0 38.4 17.192 38.4 38.4s-17.193 38.4-38.4 38.4h-563.2zM51.2 179.2c-21.208 0-38.4-17.193-38.4-38.4s17.192-38.4 38.4-38.4h563.2c21.207 0 38.4 17.193 38.4 38.4s-17.193 38.4-38.4 38.4h-563.2zM371.2 448c0 21.208 17.192 38.4 38.4 38.4h563.2c21.207 0 38.4-17.192 38.4-38.4s-17.193-38.4-38.4-38.4h-563.2c-21.208 0-38.4 17.192-38.4 38.4zM793.6 281.6c21.207 0 38.4-17.193 38.4-38.4v-64h140.8c21.207 0 38.4-17.193 38.4-38.4s-17.193-38.4-38.4-38.4h-140.8v-64c0-21.207-17.193-38.4-38.4-38.4s-38.4 17.193-38.4 38.4v204.8c0 21.207 17.193 38.4 38.4 38.4zM192 550.4c0 21.208 17.192 38.4 38.4 38.4s38.4-17.192 38.4-38.4v-204.8c0-21.207-17.192-38.4-38.4-38.4s-38.4 17.193-38.4 38.4v64h-140.8c-21.208 0-38.4 17.192-38.4 38.4s17.192 38.4 38.4 38.4h140.8v64z" />
<glyph unicode="&#xe923;" glyph-name="plus" d="M576 874.667c0 35.346-28.654 64-64 64s-64-28.654-64-64h128zM448 21.333c0-35.345 28.654-64 64-64s64 28.655 64 64h-128zM85.333 512c-35.346 0-64-28.654-64-64s28.654-64 64-64v128zM938.667 384c35.345 0 64 28.654 64 64s-28.655 64-64 64v-128zM448 874.667v-853.333h128v853.333h-128zM85.333 384h853.333v128h-853.333v-128z" />
<glyph unicode="&#xe924;" glyph-name="search" d="M463.238 947.81c-119.611 0-234.374-47.517-318.952-132.095s-132.095-199.341-132.095-318.952c0-119.609 47.518-234.373 132.095-318.952s199.342-132.095 318.952-132.095c107.034 0 207.076 42.911 288.19 111.524l197.905-198.286c6.623-6.646 15.784-10.758 25.906-10.758 10.073 0 19.195 4.073 25.81 10.661l-0.001-0.001c6.646 6.623 10.758 15.784 10.758 25.906 0 10.073-4.073 19.195-10.661 25.81l0.001-0.001-198.095 198.476c68.382 81.051 111.236 180.871 111.236 287.717 0 119.611-47.515 234.374-132.095 318.952s-199.343 132.095-318.952 132.095zM463.238 874.667c100.238 0 196.355-39.785 267.238-110.667s110.667-166.997 110.667-267.238c0-100.122-39.748-196.094-110.476-266.952-0.083-0.083-0.107-0.205-0.19-0.288-70.883-70.881-167-110.665-267.238-110.665-100.241 0-196.358 39.784-267.238 110.667s-110.667 167-110.667 267.238c0 100.241 39.786 196.357 110.667 267.238s166.998 110.667 267.238 110.667z" />
<glyph unicode="&#xe925;" glyph-name="slack" d="M512 960c-282.743 0-512-229.257-512-512s229.257-512 512-512c282.742 0 512 229.258 512 512s-229.258 512-512 512zM340 370.058c0-31.775-25.714-57.6-57.485-57.6-15.2 0-29.829 6.057-40.686 16.911-10.743 10.86-16.8 25.487-16.8 40.689 0 31.77 25.714 57.6 57.486 57.6h57.485v-57.6zM493.143 216.458c0-31.775-25.714-57.6-57.486-57.6s-57.486 25.825-57.486 57.6v153.6c0 31.77 25.714 57.6 57.486 57.6 15.2 0 29.829-6.057 40.686-16.916 10.857-10.854 16.8-25.482 16.8-40.684v-153.6zM435.771 466.057h-153.143c-31.772 0-57.486 25.828-57.486 57.6s25.714 57.6 57.486 57.6h153.143c31.772 0 57.486-25.829 57.486-57.6-0.114-31.886-25.829-57.6-57.486-57.6zM435.771 619.657c-15.2 0-29.829 6.057-40.686 16.914s-16.8 25.371-16.8 40.686c0 31.771 25.714 57.6 57.486 57.6s57.486-25.829 57.486-57.6v-57.6h-57.486zM531.43 677.257c0 31.771 25.713 57.6 57.482 57.6 31.775 0 57.487-25.829 57.487-57.6v-153.6c0-31.772-25.713-57.6-57.487-57.6-31.77 0-57.482 25.828-57.482 57.6v153.6zM588.913 158.858c-31.77 0-57.482 25.825-57.482 57.6v57.6h57.482c31.775 0 57.487-25.83 57.487-57.6 0-31.775-25.713-57.6-57.487-57.6zM742.057 312.458h-153.144c-15.196 0-29.829 6.057-40.684 16.911-10.86 10.86-16.799 25.375-16.799 40.689 0 31.77 25.713 57.6 57.482 57.6h153.144c31.77 0 57.487-25.83 57.487-57.6 0-31.775-25.718-57.6-57.487-57.6zM742.057 466.057h-57.487v57.6c0 31.771 25.718 57.6 57.487 57.6s57.487-25.829 57.487-57.6c0-31.772-25.718-57.6-57.487-57.6z" />
<glyph unicode="&#xe926;" glyph-name="sort-number" d="M51.2 870.4c-21.208 0-38.4-17.192-38.4-38.4v0c0-21.208 17.192-38.4 38.4-38.4v0h761.3c21.208 0 38.4 17.192 38.4 38.4v0c0 21.208-17.192 38.4-38.4 38.4v0zM772.5 678.4c-21.208 0-38.4-17.192-38.4-38.4v0-473.4l-133 153c-7.079 8.123-17.442 13.227-28.998 13.227-9.666 0-18.497-3.571-25.247-9.466l0.045 0.039c-8.123-7.079-13.227-17.442-13.227-28.998 0-9.666 3.571-18.497 9.466-25.247l-0.039 0.045 200.4-230.4c0.182-0.106 0.575-0.306 0.973-0.5l0.228-0.1c0.65-0.698 1.302-1.35 1.977-1.978l0.023-0.021c0.294-0.625 0.494-1.019 0.701-1.408l-0.101 0.208c0.75 0.019 1.445 0.056 2.135 0.111l-0.135-0.009c2.527-1.452 5.451-2.681 8.53-3.536l0.27-0.064c3.753-2.438 8.144-4.278 12.851-5.257l0.249-0.043c0.198-0.108 0.625-0.309 1.057-0.503l0.243-0.097c4.735 1.064 8.916 2.862 12.648 5.291l-0.148-0.091c4.749 0.705 9.027 2.179 12.9 4.3l-0.2-0.1c0.308 0.393 0.669 0.881 1.019 1.378l0.081 0.122c0.425 0.509 0.884 1.095 1.326 1.695l0.074 0.105c0.136 0.134 0.266 0.264 0.395 0.395l0.004 0.005c0.459 0.051 0.732 0.087 1.005 0.126l-0.205-0.024 200.4 230.4c5.856 6.705 9.427 15.536 9.427 25.202 0 11.556-5.104 21.919-13.181 28.959l-0.046 0.039c-6.705 5.856-15.536 9.427-25.202 9.427-11.556 0-21.919-5.104-28.959-13.181l-0.039-0.046-132.9-152.9v473.296c0 21.208-17.192 38.4-38.4 38.4v0zM51.2 601.6c-21.208 0-38.4-17.192-38.4-38.4v0c0-21.208 17.192-38.4 38.4-38.4v0h520.9c21.208 0 38.4 17.192 38.4 38.4v0c0 21.208-17.192 38.4-38.4 38.4v0zM51.2 332.8c-21.208 0-38.4-17.192-38.4-38.4v0c0-21.208 17.192-38.4 38.4-38.4v0h320.6c21.208 0 38.4 17.192 38.4 38.4v0c0 21.208-17.192 38.4-38.4 38.4v0z" />
<glyph unicode="&#xe927;" glyph-name="sort-word" d="M294.917 800c-17.673 0-32-14.327-32-32v0-554.417l-110.75 127.417c-5.899 6.769-14.535 11.023-24.165 11.023-8.055 0-15.414-2.976-21.039-7.888l0.038 0.032c-6.769-5.899-11.023-14.535-11.023-24.165 0-8.055 2.976-15.414 7.888-21.039l-0.032 0.038 167-192c0.151-0.088 0.479-0.255 0.81-0.417l0.19-0.083c0.541-0.582 1.085-1.125 1.647-1.649l0.019-0.018c0.245-0.521 0.412-0.849 0.584-1.173l-0.084 0.173c0.625 0.016 1.204 0.047 1.779 0.093l-0.112-0.007c2.155-1.251 4.647-2.304 7.275-3.031l0.225-0.053c3.056-2.004 6.627-3.534 10.454-4.377l0.212-0.039c0.143-0.069 0.501-0.211 0.862-0.346l0.221-0.072c3.976 0.877 7.489 2.376 10.625 4.409l-0.125-0.076c3.928 0.598 7.464 1.825 10.666 3.583l-0.166-0.084c0.266 0.319 0.566 0.699 0.858 1.086l0.058 0.081c0.412 0.499 0.849 1.069 1.268 1.653l0.066 0.097c-0.056-0.126-0.028-0.071-0.001-0.017l0.084 0.183c0.012 0 0.027 0 0.042 0s0.029 0 0.044 0h-0.002c0.397 0.039 0.654 0.069 0.911 0.102l-0.161-0.017 167 192c4.88 5.587 7.856 12.947 7.856 21.002 0 9.63-4.254 18.266-10.984 24.132l-0.038 0.033c-5.587 4.88-12.947 7.856-21.002 7.856-9.63 0-18.266-4.254-24.132-10.984l-0.033-0.038-110.833-127.502v554.5c0 17.673-14.327 32-32 32v0zM754.083 815.75c-12.242-0.009-22.874-6.89-28.249-16.994l-0.084-0.173-140.25-268.5c-2.283-4.292-3.624-9.385-3.624-14.791 0-12.266 6.902-22.921 17.033-28.292l0.174-0.084c4.301-2.294 9.406-3.641 14.825-3.641 12.24 0 22.875 6.872 28.257 16.969l0.084 0.172 43.833 83.917h136.083l43.833-83.917c5.466-10.269 16.101-17.142 28.341-17.142 5.42 0 10.525 1.347 14.998 3.725l-0.173-0.084c10.305 5.455 17.207 16.109 17.207 28.375 0 5.406-1.341 10.499-3.708 14.965l0.084-0.174-52.833 101.083-87.417 167.417c-5.462 10.283-16.106 17.167-28.356 17.167-0.021 0-0.042 0-0.064 0h0.003zM754.169 714.583l34.583-66.25h-69.25zM834.75 436.833c-32.121 4.644-75.186 7.79-115.333-0.916-20.074-4.353-40.029-11.727-56.667-26.417s-28-38.16-28-63.417c0-25.809 9.427-49.319 24.417-65.833s33.961-26.271 52.917-32.667c9.546-3.221 16.973-1.638 26.583-3.5l-116.167-90.917c-7.48-5.912-12.237-14.985-12.237-25.168 0-7.483 2.569-14.366 6.872-19.816l-0.051 0.068c5.912-7.48 14.985-12.237 25.168-12.237 7.483 0 14.366 2.569 19.816 6.872l-0.068-0.051 136.167 106.583v-81.417c0-17.673 14.327-32 32-32v0c17.673 0 32 14.327 32 32v0 277.167c-0.003 16.054-11.827 29.346-27.241 31.645l-0.175 0.021zM798.167 373.5v-73.25c-22.528 1.055-47.055 1.665-65.583 7.917-12.184 4.111-21.001 9.576-26 15.083s-7.833 10.775-7.833 22.833c0 9.11 1.691 11.328 6.417 15.5s14.474 8.936 27.833 11.833c18.806 4.079 42.675 1.601 65.167 0.085z" />
<glyph unicode="&#xe928;" glyph-name="star-off" d="M512 939.4c-24.806 0-51.144-15.301-62-41.4l-106.6-256.3-276.7-22.2c-28.177-2.259-50.935-22.608-58.6-46.2s-1.268-53.411 20.2-71.8l210.8-180.6-64.4-270c-6.558-27.495 5.83-55.32 25.9-69.9s50.378-17.733 74.5-3l236.9 144.6 236.9-144.6c24.121-14.733 54.431-11.581 74.5 3s32.459 42.406 25.9 69.9l-64.4 270 210.8 180.6c21.469 18.39 27.866 48.209 20.2 71.8s-30.423 43.941-58.6 46.2l-276.7 22.2-106.6 256.3c-10.858 26.097-37.194 41.4-62 41.4zM512 847.1l100-240.3c9.649-23.201 31.658-39.194 56.7-41.2l259.5-20.8-197.7-169.4c-19.025-16.344-27.529-42.189-21.7-66.6l60.5-253.3-222.3 135.8c-21.441 13.103-48.56 13.102-70 0l-222.3-135.8 60.5 253.3c5.82 24.402-2.674 50.254-21.7 66.6l-197.7 169.4 259.5 20.8c25.042 2.007 47.052 18.006 56.7 41.2z" />
<glyph unicode="&#xe929;" glyph-name="star-on" d="M538.593 883.267l108.846-261.707c4.147-9.972 13.527-16.785 24.294-17.648l282.532-22.651c25.539-2.047 35.891-33.915 16.435-50.58l-215.26-184.395c-8.202-7.025-11.786-18.048-9.277-28.554l65.766-275.707c5.939-24.919-21.166-44.611-43.028-31.258l-241.889 147.743c-9.216 5.632-20.807 5.632-30.024 0l-241.889-147.743c-21.862-13.353-48.97 6.339-43.026 31.258l65.766 275.707c2.506 10.506-1.076 21.53-9.278 28.554l-215.261 184.395c-19.455 16.666-9.101 48.534 16.435 50.58l282.534 22.651c10.765 0.863 20.143 7.676 24.29 17.648l108.85 261.707c9.838 23.653 43.344 23.653 53.185 0zM512 939.4c-24.806 0-51.144-15.301-62-41.4l-106.6-256.3-276.7-22.2c-28.177-2.259-50.935-22.608-58.6-46.2s-1.268-53.411 20.2-71.8l210.8-180.6-64.4-270c-6.558-27.495 5.83-55.32 25.9-69.9s50.378-17.733 74.5-3l236.9 144.6 236.9-144.6c24.121-14.733 54.431-11.579 74.5 3s32.453 42.406 25.9 69.9l-64.4 270 210.8 180.6c21.468 18.389 27.865 48.207 20.2 71.8s-30.423 43.942-58.6 46.2l-276.7 22.2-106.6 256.3c-10.858 26.097-37.194 41.4-62 41.4zM512 847.1l100-240.3c9.649-23.201 31.658-39.194 56.7-41.2l259.5-20.8-197.7-169.4c-19.025-16.344-27.529-42.189-21.7-66.6l60.5-253.3-222.3 135.8c-21.44 13.102-48.56 13.101-70 0l-222.3-135.8 60.5 253.3c5.82 24.402-2.674 50.254-21.7 66.6l-197.7 169.4 259.5 20.8c25.042 2.007 47.053 18.003 56.7 41.2z" />
<glyph unicode="&#xe92a;" glyph-name="table" d="M104.727 832c-44.573 0-81.455-36.882-81.455-81.455v-605.091c0-44.573 36.883-81.455 81.455-81.455h814.545c44.572 0 81.455 36.882 81.455 81.455v605.091c0 2.012-2.034 3.203-2.182 5.182-0.158 1.010-0.317 1.81-0.503 2.6l0.047-0.237c-0.513 0.852-0.963 1.534-1.436 2.198l0.073-0.107c-5.473 39.469-36.615 71.818-77.453 71.818h-808.727zM104.727 762.182h814.545c6.841 0 11.636-4.796 11.636-11.636v-93.091h-837.818v93.091c0 6.839 4.797 11.636 11.636 11.636zM93.091 587.636h384v-104.727h-384v87.273zM546.909 587.636h384v-104.727h-384v87.273zM93.091 413.091h384v-104.727h-384v87.273zM546.909 413.091h384v-104.727h-384v87.273zM93.091 238.545h384v-104.727h-372.364c-6.84 0-11.636 4.795-11.636 11.636v75.636zM546.909 238.545h384v-93.091c0-6.842-4.794-11.636-11.636-11.636h-372.364v87.273z" />
<glyph unicode="&#xe92b;" glyph-name="tg" d="M512 960c-101.264 0-200.254-30.028-284.452-86.287s-149.822-136.223-188.574-229.778c-38.752-93.556-48.891-196.503-29.136-295.82s68.519-190.546 140.124-262.154c71.604-71.603 162.834-120.366 262.152-140.119 99.318-19.758 202.266-9.62 295.818 29.133 93.558 38.753 173.522 104.376 229.78 188.575s86.287 183.188 86.287 284.452c0 135.791-53.944 266.020-149.96 362.039-96.020 96.018-226.248 149.961-362.040 149.961zM763.52 609.28l-83.84-396.16c-6.4-28.16-23.040-34.56-46.72-21.76l-128 94.72-64-59.52c-3.014-3.937-6.886-7.137-11.322-9.354s-9.319-3.395-14.278-3.446l8.96 128 236.8 214.4c10.88 8.96 0 14.080-15.36 5.12l-290.56-182.4-128 39.68c-27.52 8.32-28.16 27.52 5.76 40.32l493.44 192c24.32 7.040 44.8-7.040 37.12-41.6z" />
<glyph unicode="&#xe92c;" glyph-name="time" d="M550.4 652.8c0 21.208-17.193 38.4-38.4 38.4s-38.4-17.192-38.4-38.4h76.8zM512 448h-38.4c0-10.184 4.046-19.953 11.247-27.151l27.153 27.151zM587.249 318.449c14.996-14.996 39.306-14.996 54.303 0s14.996 39.306 0 54.303l-54.303-54.303zM473.6 652.8v-204.8h76.8v204.8h-76.8zM484.847 420.849l102.402-102.4 54.303 54.303-102.4 102.402-54.304-54.304zM934.4 448c0-233.283-189.117-422.4-422.4-422.4v-76.8c275.702 0 499.2 223.498 499.2 499.2h-76.8zM512 25.6c-233.285 0-422.4 189.117-422.4 422.4h-76.8c0-275.702 223.499-499.2 499.2-499.2v76.8zM89.6 448c0 233.285 189.115 422.4 422.4 422.4v76.8c-275.701 0-499.2-223.499-499.2-499.2h76.8zM512 870.4c233.283 0 422.4-189.115 422.4-422.4h76.8c0 275.701-223.498 499.2-499.2 499.2v-76.8z" />
<glyph unicode="&#xe92d;" glyph-name="turn" d="M599.6 936.9c-6.835 6.37-16.037 10.281-26.151 10.281-11.109 0-21.116-4.717-28.127-12.257l-0.022-0.024-111.7-120.2c0-0.015 0-0.032 0-0.050s0-0.035 0-0.053v0.003l-0.9-0.9c-0.003-0.164-0.004-0.357-0.004-0.55s0.001-0.386 0.004-0.579v0.029c-2.193-3.477-3.887-7.523-4.852-11.844l-0.048-0.256c-2.349-3.613-4.148-7.829-5.152-12.345l-0.048-0.255c0.033 0.084-0.033-0.047-0.099-0.179l-0.101-0.221c1.064-5.578 3.195-10.523 6.183-14.827l-0.083 0.127c0.949-4.456 2.541-8.403 4.696-11.972l-0.096 0.172 0.4-0.5c0.067-0.068 0.132-0.133 0.198-0.198l0.002-0.002 1-0.9 111-115.9c6.999-7.281 16.821-11.805 27.7-11.805 10.332 0 19.711 4.080 26.613 10.717l-0.013-0.012c7.282 6.999 11.805 16.821 11.805 27.7 0 10.332-4.080 19.71-10.717 26.613l0.012-0.013-50.3 52.4h268.4c7.525 0 12.8-5.276 12.8-12.8v-576.6c0-7.526-5.274-12.8-12.8-12.8h-102.4c-21.208 0-38.4-17.192-38.4-38.4v0c0-21.208 17.192-38.4 38.4-38.4v0h102.4c49.029 0 89.6 40.571 89.6 89.6v576.6c0 49.029-40.57 89.6-89.6 89.6h-270.4l52.8 56.8c6.341 6.829 10.231 16.009 10.231 26.097 0 11.085-4.697 21.072-12.209 28.082l-0.023 0.021zM204.8 825.9c-49.030 0-89.6-40.57-89.6-89.6v-576.6c0-49.030 40.571-89.6 89.6-89.6h270.4l-52.8-56.8c-6.341-6.829-10.231-16.009-10.231-26.097 0-11.085 4.697-21.072 12.209-28.082l0.023-0.021c6.835-6.371 16.037-10.281 26.151-10.281 11.109 0 21.116 4.717 28.127 12.257l0.022 0.024 111.7 120.2c0 0.015 0 0.033 0 0.051s0 0.036 0 0.054v-0.003l0.9 0.9c1.366 2.012 2.607 4.315 3.607 6.742l0.093 0.255c1.842 2.565 3.426 5.502 4.612 8.636l0.088 0.264c0.445 2.195 0.7 4.717 0.7 7.299 0 0.035 0 0.071 0 0.106v-0.005c0.342 0.702 0.747 1.659 1.113 2.635l0.087 0.265c-0.263 1.897-0.612 3.555-1.065 5.17l0.065-0.27c-0.127 1.696-0.34 3.236-0.641 4.745l0.041-0.245c-0.322 1.318-0.631 2.354-0.981 3.37l0.081-0.27c-1.552 4.099-3.612 7.639-6.156 10.771l0.056-0.071c-0.444 0.969-0.811 1.691-1.2 2.399l0.1-0.199-1.5 1.7-111.1 125.3c-7.068 7.956-17.327 12.944-28.75 12.944-9.782 0-18.709-3.657-25.489-9.679l0.039 0.034c-7.956-7.068-12.945-17.327-12.945-28.75 0-9.782 3.657-18.709 9.679-25.489l-0.034 0.039 56-63.1h-273c-7.524 0-12.8 5.275-12.8 12.8v576.6c0 7.523 5.277 12.8 12.8 12.8h102.4c21.208 0 38.4 17.192 38.4 38.4v0c0 21.208-17.192 38.4-38.4 38.4v0z" />
<glyph unicode="&#xe92e;" glyph-name="up-tag" d="M469.715 685.461l-384.264-426.96c-32.948-36.609-6.968-94.945 42.285-94.945h768.526c49.254 0 75.236 58.336 42.286 94.946l-384.262 426.96c-22.599 25.11-61.971 25.11-84.57 0zM512 746.556c-27.229 0-54.458-10.843-74-32.556l-384.222-427c-27.743-30.825-31.739-74.016-17-107.111s49.529-59 91-59h768.444c41.472 0 76.261 25.905 91 59s10.744 76.286-17 107.111l-384.222 427c-19.542 21.713-46.771 32.556-74 32.556zM501.444 656.889c6.114 6.793 14.997 6.793 21.111 0l384.333-426.889c5.206-5.784 4.66-10.108 2.334-15.333s-5.218-8.444-13-8.444h-768.444c-7.781 0-10.673 3.219-13 8.444s-2.872 9.55 2.333 15.333l238.388 264.784z" />
<glyph unicode="&#xe92f;" glyph-name="user-data" d="M320 140.8c0-21.207 17.192-38.4 38.4-38.4s38.4 17.193 38.4 38.4h-76.8zM396.8 243.2c0 21.207-17.192 38.4-38.4 38.4s-38.4-17.193-38.4-38.4h76.8zM473.6 140.8c0-21.207 17.192-38.4 38.4-38.4s38.4 17.193 38.4 38.4h-76.8zM550.4 396.8c0 21.207-17.192 38.4-38.4 38.4s-38.4-17.193-38.4-38.4h76.8zM627.2 140.8c0-21.207 17.193-38.4 38.4-38.4s38.4 17.193 38.4 38.4h-76.8zM704 601.6c0 21.208-17.193 38.4-38.4 38.4s-38.4-17.192-38.4-38.4h76.8zM832 780.8v-742.4h76.8v742.4h-76.8zM819.2 25.6h-614.4v-76.8h614.4v76.8zM192 38.4v742.4h-76.8v-742.4h76.8zM204.8 793.6h153.6v76.8h-153.6v-76.8zM819.2 870.4h-153.6v-76.8h153.6v76.8zM409.6 870.4h204.8v76.8h-204.8v-76.8zM614.4 793.6h-204.8v-76.8h204.8v76.8zM396.8 806.4v25.6h-76.8v-25.6h76.8zM396.8 832v25.6h-76.8v-25.6h76.8zM627.2 857.6v-25.6h76.8v25.6h-76.8zM627.2 832v-25.6h76.8v25.6h-76.8zM396.8 140.8v102.4h-76.8v-102.4h76.8zM550.4 140.8v256h-76.8v-256h76.8zM704 140.8v460.8h-76.8v-460.8h76.8zM409.6 793.6c-7.069 0-12.8 5.731-12.8 12.8h-76.8c0-49.485 40.115-89.6 89.6-89.6v76.8zM614.4 716.8c49.485 0 89.6 40.115 89.6 89.6h-76.8c0-7.069-5.729-12.8-12.8-12.8v-76.8zM614.4 870.4c7.071 0 12.8-5.731 12.8-12.8h76.8c0 49.485-40.115 89.6-89.6 89.6v-76.8zM192 780.8c0 7.069 5.731 12.8 12.8 12.8v76.8c-49.485 0-89.6-40.115-89.6-89.6h76.8zM204.8 25.6c-7.069 0-12.8 5.729-12.8 12.8h-76.8c0-49.485 40.115-89.6 89.6-89.6v76.8zM409.6 947.2c-49.485 0-89.6-40.115-89.6-89.6h76.8c0 7.069 5.731 12.8 12.8 12.8v76.8zM832 38.4c0-7.071-5.729-12.8-12.8-12.8v-76.8c49.485 0 89.6 40.115 89.6 89.6h-76.8zM908.8 780.8c0 49.485-40.115 89.6-89.6 89.6v-76.8c7.071 0 12.8-5.731 12.8-12.8h76.8z" />
<glyph unicode="&#xe930;" glyph-name="vk" d="M512 960c-282.774 0-512-229.226-512-512 0-282.772 229.226-512 512-512 282.772 0 512 229.228 512 512 0 282.774-229.228 512-512 512zM708.905 382.346c0 0 45.281-44.692 56.428-65.439 0.323-0.43 0.481-0.855 0.589-1.065 4.531-7.629 5.601-13.548 3.359-17.976-3.732-7.357-16.532-10.988-20.905-11.305h-80c-5.55 0-17.172 1.439-31.258 11.146-10.824 7.572-21.489 19.999-31.892 32.108-15.519 18.028-28.959 33.597-42.506 33.597-1.72 0.005-3.43-0.266-5.064-0.799-10.24-3.308-23.363-17.92-23.363-56.852 0-12.16-9.6-19.149-16.374-19.149h-36.639c-12.48 0-77.493 4.372-135.093 65.121-70.507 74.399-133.974 223.626-134.507 225.013-4 9.654 4.267 14.827 13.28 14.827h80.8c10.774 0 14.294-6.56 16.747-12.374 2.88-6.773 13.44-33.706 30.773-64 28.107-49.386 45.334-69.437 59.147-69.437 2.59 0.026 5.134 0.686 7.413 1.92 18.026 10.024 14.667 74.291 13.866 87.624 0 2.507-0.053 28.747-9.28 41.333-6.613 9.12-17.867 12.586-24.693 13.866 2.763 3.813 6.404 6.904 10.613 9.014 12.374 6.186 34.667 7.093 56.8 7.093h12.32c24-0.32 30.187-1.867 38.882-4.054 17.597-4.213 17.971-15.574 16.425-54.453-0.481-11.040-0.963-23.52-0.963-38.24 0-3.2-0.159-6.613-0.159-10.24-0.532-19.786-1.172-42.24 12.8-51.466 1.823-1.143 3.932-1.753 6.083-1.758 4.854 0 19.466 0 59.039 67.891 12.206 21.853 22.81 44.561 31.734 67.947 0.799 1.386 3.144 5.653 5.919 7.306 2.048 1.043 4.316 1.574 6.615 1.547h94.986c10.348 0 17.439-1.547 18.77-5.546 2.35-6.347-0.425-25.706-43.786-84.427l-19.359-25.547c-39.306-51.519-39.306-54.136 2.452-93.227z" />
<glyph unicode="&#xe931;" glyph-name="home" horiz-adv-x="859" d="M429.409 926.968l17.517 17.518c-9.675 9.675-25.362 9.675-35.034 0l17.517-17.518zM44.032 541.59l-17.518 17.52c-4.646-4.648-7.256-10.95-7.256-17.52h24.774zM814.784 541.59h24.774c0 6.57-2.61 12.873-7.254 17.52l-17.52-17.52zM814.784-8.945v-24.774c6.573 0 12.873 2.61 17.52 7.254 4.644 4.648 7.254 10.95 7.254 17.52h-24.774zM44.033-8.945h-24.774c0-13.682 11.092-24.774 24.774-24.774v24.774zM411.892 944.486l-385.378-385.375 35.036-35.037 385.376 385.376-35.034 35.036zM832.304 559.111l-385.377 385.375-35.034-35.036 385.374-385.376 35.037 35.037zM790.009 541.59v-550.535h49.548v550.535h-49.548zM814.784 15.829h-770.751v-49.548h770.751v49.548zM68.807-8.945v550.535h-49.548v-550.535h49.549z" />
<glyph unicode="&#xe932;" glyph-name="settings" d="M738.272 825.125v0zM716.816 803.668v0zM889.12 749.7v0zM813.696 825.125v0zM867.667 652.821v0zM889.12 674.276v0zM938.666 554.666v0zM908.333 554.666v0zM889.123 221.728v0zM867.667 243.181v0zM813.699 70.877v0zM889.123 146.301v0zM716.819 92.333v0zM738.272 70.877v0zM285.724 70.877v0zM307.179 92.333v0zM134.874 146.304v0zM210.299 70.877v0zM156.332 243.184v0zM134.874 221.728v0zM115.668 554.666v0zM85.333 554.666v0zM134.875 674.275v0zM156.332 652.818v0zM210.3 825.125v0zM134.875 749.7v0zM307.182 803.668v0zM285.724 825.125v0zM368.947 792.944v0zM167.056 591.053v0zM167.055 304.947v0zM368.947 103.056v0zM655.053 103.056v0zM856.944 304.947v0zM856.944 591.053v0zM655.053 792.945v0zM565.334 952h-106.669v-48h106.669v48zM642.666 844.332v30.335h-48v-30.335h48zM721.302 842.095l-21.459-21.457 33.942-33.941 21.456 21.457-33.939 33.941zM906.093 766.671l-75.424 75.425-33.942-33.941 75.424-75.425 33.942 33.941zM884.637 635.85l21.456 21.455-33.942 33.941-21.453-21.454 33.939-33.942zM938.666 578.666h-30.333v-48h30.333v48zM1016 394.666v106.669h-48v-106.669h48zM908.333 317.334h30.333v48h-30.333v-48zM906.093 238.698l-21.456 21.456-33.939-33.942 21.453-21.456 33.942 33.942zM830.669 53.907l75.424 75.424-33.942 33.942-75.424-75.424 33.942-33.942zM699.846 75.363l21.456-21.456 33.942 33.939-21.456 21.456-33.942-33.939zM642.666 21.334v30.333h-48v-30.333h48zM458.666-56h106.669v48h-106.669v-48zM381.334 51.667v-30.333h48v30.333h-48zM302.694 53.907l21.456 21.456-33.942 33.939-21.455-21.453 33.941-33.942zM117.904 129.331l75.425-75.424 33.941 33.942-75.425 75.424-33.941-33.942zM139.362 260.157l-21.458-21.459 33.941-33.942 21.458 21.459-33.941 33.942zM85.333 317.334h30.335v48h-30.335v-48zM8 501.334v-106.669h48v106.669h-48zM115.668 578.666h-30.334v-48h30.334v48zM117.905 657.305l21.457-21.458 33.941 33.942-21.457 21.457-33.941-33.941zM193.329 842.095l-75.425-75.425 33.941-33.941 75.425 75.425-33.941 33.941zM324.154 820.638l-21.459 21.457-33.941-33.941 21.457-21.457 33.942 33.941zM381.334 874.667v-30.334h48v30.334h-48zM378.15 770.779c28.592 11.871 51.184 39.569 51.184 73.554h-48c0-11.648-8.038-23.596-21.59-29.223l18.406-44.331zM290.211 786.697c23.923-23.923 59.142-27.874 87.939-15.918l-18.406 44.331c-13.366-5.549-27.235-2.828-35.59 5.528l-33.942-33.941zM227.27 808.154c11.455 11.455 30.028 11.455 41.484 0l33.941 33.941c-30.2 30.2-79.165 30.2-109.366 0l33.941-33.941zM151.846 691.246c-11.455 11.455-11.455 30.028 0 41.484l-33.941 33.941c-30.201-30.201-30.201-79.165 0-109.366l33.941 33.941zM189.221 581.85c11.955 28.797 8.005 64.016-15.918 87.939l-33.941-33.942c8.357-8.355 11.077-22.224 5.528-35.59l44.331-18.406zM115.668 530.666c33.985 0 61.683 22.592 73.554 51.184l-44.331 18.406c-5.627-13.552-17.574-21.59-29.222-21.59v-48zM56 501.334c0 16.198 13.133 29.331 29.333 29.331v48c-42.71 0-77.333-34.621-77.333-77.331h48zM85.333 365.334c-16.2 0-29.333 13.133-29.333 29.331h-48c0-42.71 34.623-77.331 77.333-77.331v48zM189.221 314.15c-11.871 28.592-39.568 51.184-73.552 51.184v-48c11.648 0 23.595-8.035 29.221-21.587l44.331 18.403zM173.303 226.214c23.922 23.923 27.873 59.142 15.918 87.936l-44.331-18.403c5.549-13.366 2.828-27.235-5.528-35.59l33.941-33.942zM151.845 163.274c-11.455 11.456-11.455 30.029 0 41.482l-33.941 33.942c-30.201-30.202-30.201-79.165 0-109.366l33.941 33.942zM268.753 87.85c-11.455-11.456-30.028-11.456-41.484 0l-33.941-33.942c30.201-30.202 79.165-30.202 109.366 0l-33.941 33.942zM378.15 125.222c-28.797 11.955-64.019 8.003-87.942-15.92l33.942-33.939c8.355 8.355 22.227 11.078 35.594 5.526l18.406 44.333zM429.334 51.667c0 33.984-22.592 61.683-51.184 73.555l-18.406-44.333c13.552-5.626 21.59-17.574 21.59-29.222h48zM458.666-8c-16.198 0-29.331 13.133-29.331 29.334h-48c0-42.71 34.621-77.334 77.331-77.334v48zM594.666 21.334c0-16.202-13.133-29.334-29.331-29.334v-48c42.71 0 77.331 34.624 77.331 77.334h-48zM645.85 125.222c-28.592-11.872-51.184-39.571-51.184-73.555h48c0 11.648 8.038 23.597 21.59 29.222l-18.406 44.333zM733.789 109.302c-23.923 23.923-59.142 27.875-87.939 15.92l18.406-44.333c13.366 5.549 27.235 2.829 35.59-5.526l33.942 33.939zM796.726 87.85c-11.456-11.456-30.029-11.456-41.482-0.003l-33.942-33.939c30.202-30.202 79.165-30.202 109.366 0l-33.942 33.942zM872.15 204.755c11.456-11.453 11.456-30.026 0-41.482l33.942-33.942c30.202 30.202 30.202 79.165 0 109.366l-33.942-33.942zM834.778 314.15c-11.955-28.797-8.003-64.016 15.92-87.939l33.939 33.942c-8.355 8.355-11.075 22.224-5.526 35.59l-44.333 18.406zM908.333 365.334c-33.984 0-61.683-22.592-73.555-51.184l44.333-18.406c5.626 13.552 17.574 21.59 29.222 21.59v48zM968 394.666c0-16.198-13.133-29.331-29.334-29.331v-48c42.71 0 77.334 34.621 77.334 77.331h-48zM938.666 530.666c16.202 0 29.334-13.133 29.334-29.331h48c0 42.71-34.624 77.331-77.334 77.331v-48zM834.778 581.85c11.872-28.592 39.571-51.184 73.555-51.184v48c-11.648 0-23.597 8.038-29.222 21.59l-44.333-18.406zM850.698 669.792c-23.923-23.924-27.875-59.146-15.92-87.942l44.333 18.406c-5.552 13.366-2.829 27.238 5.526 35.594l-33.939 33.942zM872.15 732.73c11.456-11.455 11.456-30.028 0-41.484l33.942-33.941c30.198 30.2 30.198 79.165 0 109.366l-33.942-33.941zM755.242 808.154c11.456 11.455 30.029 11.455 41.485 0l33.942 33.941c-30.202 30.201-79.168 30.201-109.366 0l33.939-33.941zM645.85 770.779c28.794-11.955 64.013-8.004 87.936 15.918l-33.942 33.941c-8.355-8.356-22.224-11.077-35.59-5.528l-18.403-44.331zM594.666 844.332c0-33.984 22.592-61.681 51.184-73.552l18.403 44.331c-13.552 5.626-21.587 17.573-21.587 29.221h-48zM458.666 952c-42.71 0-77.331-34.623-77.331-77.333h48c0 16.2 13.133 29.333 29.331 29.333v48zM565.334 904c16.198 0 29.331-13.133 29.331-29.333h48c0 42.71-34.621 77.333-77.331 77.333v-48zM594.666 448c0-45.654-37.011-82.666-82.666-82.666v-48c72.166 0 130.666 58.499 130.666 130.666h-48zM512 365.334c-45.654 0-82.666 37.011-82.666 82.666h-48c0-72.166 58.499-130.666 130.666-130.666v48zM429.334 448c0 45.654 37.011 82.666 82.666 82.666v48c-72.166 0-130.666-58.499-130.666-130.666h48zM512 530.666c45.654 0 82.666-37.011 82.666-82.666h48c0 72.166-58.499 130.666-130.666 130.666v-48z" />
</font>
</defs>
</svg>
