<svg width="40" height="40" viewBox="0 0 40 40" fill="none" xmlns="http://www.w3.org/2000/svg">
<path d="M6.66675 17.5833C6.25253 17.5833 5.91675 17.9191 5.91675 18.3333C5.91675 18.7475 6.25253 19.0833 6.66675 19.0833V17.5833ZM25.7501 5C25.7501 4.58579 25.4143 4.25 25.0001 4.25C24.5859 4.25 24.2501 4.58579 24.2501 5H25.7501ZM24.2501 11.6667C24.2501 12.0809 24.5859 12.4167 25.0001 12.4167C25.4143 12.4167 25.7501 12.0809 25.7501 11.6667H24.2501ZM15.7501 5C15.7501 4.58579 15.4143 4.25 15.0001 4.25C14.5859 4.25 14.2501 4.58579 14.2501 5H15.7501ZM14.2501 11.6667C14.2501 12.0809 14.5859 12.4167 15.0001 12.4167C15.4143 12.4167 15.7501 12.0809 15.7501 11.6667H14.2501ZM33.3334 17.5833H6.66675V19.0833H33.3334V17.5833ZM7.41675 31.6667V11.6667H5.91675V31.6667H7.41675ZM10.0001 34.25C8.57335 34.25 7.41675 33.0934 7.41675 31.6667H5.91675C5.91675 33.9218 7.74492 35.75 10.0001 35.75V34.25ZM10.0001 7.58333C7.74492 7.58333 5.91675 9.4115 5.91675 11.6667H7.41675C7.41675 10.2399 8.57335 9.08333 10.0001 9.08333V7.58333ZM34.0834 31.6667V18.3333H32.5834V31.6667H34.0834ZM34.0834 18.3333V11.6667H32.5834V18.3333H34.0834ZM30.0001 35.75C32.2552 35.75 34.0834 33.9218 34.0834 31.6667H32.5834C32.5834 33.0934 31.4268 34.25 30.0001 34.25V35.75ZM30.0001 9.08333C31.4268 9.08333 32.5834 10.2399 32.5834 11.6667H34.0834C34.0834 9.4115 32.2552 7.58333 30.0001 7.58333V9.08333ZM30.0001 7.58333H10.0001V9.08333H30.0001V7.58333ZM30.0001 34.25H10.0001V35.75H30.0001V34.25ZM24.2501 5V11.6667H25.7501V5H24.2501ZM14.2501 5V11.6667H15.7501V5H14.2501Z" fill="#4169E1"/>
</svg>
