<svg width="16" height="18" viewBox="0 0 16 18" fill="none" xmlns="http://www.w3.org/2000/svg">
<path fill-rule="evenodd" clip-rule="evenodd" d="M11.435 3.12162H4.97035H2.16732C1.70708 3.12162 1.33398 3.49472 1.33398 3.95495V5.55405H14.6673V3.95495C14.6673 3.49472 14.2942 3.12162 13.834 3.12162H11.435Z" fill="white"/>
<path d="M1.33398 5.55405H14.6673M1.33398 5.55405V3.95495M1.33398 5.55405V15.6667M14.6673 5.55405V3.95495M14.6673 5.55405V15.6667M11.435 3.12162V1.5M11.435 3.12162H4.97035M11.435 3.12162H13.834M4.97035 3.12162V1.5M4.97035 3.12162H2.16732M1.33398 3.95495V3.95495C1.33398 3.49472 1.70708 3.12162 2.16732 3.12162V3.12162M1.33398 3.95495C1.33398 3.49472 1.70708 3.12162 2.16732 3.12162M13.834 3.12162V3.12162C14.2942 3.12162 14.6673 3.49472 14.6673 3.95495V3.95495M13.834 3.12162C14.2942 3.12162 14.6673 3.49472 14.6673 3.95495M14.6673 15.6667V15.6667C14.6673 16.1269 14.2942 16.5 13.834 16.5V16.5M14.6673 15.6667C14.6673 16.1269 14.2942 16.5 13.834 16.5M13.834 16.5H2.16732M2.16732 16.5V16.5C1.70708 16.5 1.33398 16.1269 1.33398 15.6667V15.6667M2.16732 16.5C1.70708 16.5 1.33398 16.1269 1.33398 15.6667M3.83398 8.16667H12.1673M3.83398 10.6667H12.1673M3.83398 13.1667H12.1673" stroke="#4772F2" stroke-width="1.5" stroke-linecap="round"/>
</svg>
