<svg width="24" height="24" viewBox="0 0 24 24" fill="none" xmlns="http://www.w3.org/2000/svg">
<path d="M9.75 17.25C9.75 16.8358 9.41421 16.5 9 16.5C8.58579 16.5 8.25 16.8358 8.25 17.25H9.75ZM8.12132 20.3787L8.65165 20.909L8.12132 20.3787ZM7.5 21L6.96967 20.4697C6.75517 20.6842 6.691 21.0068 6.80709 21.287C6.92318 21.5673 7.19665 21.75 7.5 21.75V21ZM16.5 21V21.75C16.8033 21.75 17.0768 21.5673 17.1929 21.287C17.309 21.0068 17.2448 20.6842 17.0303 20.4697L16.5 21ZM15.8787 20.3787L16.409 19.8483H16.409L15.8787 20.3787ZM15.75 17.25C15.75 16.8358 15.4142 16.5 15 16.5C14.5858 16.5 14.25 16.8358 14.25 17.25H15.75ZM8.25 17.25V18.2574H9.75V17.25H8.25ZM7.59099 19.8484L6.96967 20.4697L8.03033 21.5303L8.65165 20.909L7.59099 19.8484ZM7.5 21.75H16.5V20.25H7.5V21.75ZM17.0303 20.4697L16.409 19.8483L15.3483 20.909L15.9697 21.5303L17.0303 20.4697ZM15.75 18.2574V17.25H14.25V18.2574H15.75ZM16.409 19.8483C15.9871 19.4264 15.75 18.8541 15.75 18.2574H14.25C14.25 19.2519 14.6451 20.2057 15.3484 20.909L16.409 19.8483ZM8.25 18.2574C8.25 18.8541 8.01295 19.4264 7.59099 19.8484L8.65165 20.909C9.35491 20.2057 9.75 19.2519 9.75 18.2574H8.25ZM5.25 3.75H18.75V2.25H5.25V3.75ZM20.25 5.25V15H21.75V5.25H20.25ZM18.75 16.5H5.25V18H18.75V16.5ZM3.75 15V5.25H2.25V15H3.75ZM5.25 16.5C4.42157 16.5 3.75 15.8284 3.75 15H2.25C2.25 16.6569 3.59315 18 5.25 18V16.5ZM20.25 15C20.25 15.8284 19.5784 16.5 18.75 16.5V18C20.4069 18 21.75 16.6569 21.75 15H20.25ZM18.75 3.75C19.5784 3.75 20.25 4.42157 20.25 5.25H21.75C21.75 3.59315 20.4069 2.25 18.75 2.25V3.75ZM5.25 2.25C3.59315 2.25 2.25 3.59315 2.25 5.25H3.75C3.75 4.42157 4.42157 3.75 5.25 3.75V2.25ZM20.25 5.25V12H21.75V5.25H20.25ZM18.75 13.5H5.25V15H18.75V13.5ZM3.75 12V5.25H2.25V12H3.75ZM5.25 13.5C4.42157 13.5 3.75 12.8284 3.75 12H2.25C2.25 13.6569 3.59315 15 5.25 15V13.5ZM20.25 12C20.25 12.8284 19.5784 13.5 18.75 13.5V15C20.4069 15 21.75 13.6569 21.75 12H20.25Z" fill="#4772F2"/>
</svg>
