<svg width="16" height="17" viewBox="0 0 16 17" fill="none" xmlns="http://www.w3.org/2000/svg">
<path d="M5.19702 6.63636C4.90412 6.34346 4.42925 6.34346 4.13636 6.63636C3.84346 6.92925 3.84346 7.40412 4.13636 7.69702L5.19702 6.63636ZM8.00002 10.5L7.46969 11.0304C7.61034 11.171 7.80111 11.25 8.00002 11.25C8.19893 11.25 8.3897 11.171 8.53035 11.0304L8.00002 10.5ZM11.8637 7.69702C12.1566 7.40412 12.1566 6.92925 11.8637 6.63636C11.5708 6.34346 11.0959 6.34346 10.803 6.63636L11.8637 7.69702ZM4.13636 7.69702L7.46969 11.0304L8.53035 9.96969L5.19702 6.63636L4.13636 7.69702ZM8.53035 11.0304L11.8637 7.69702L10.803 6.63636L7.46969 9.96969L8.53035 11.0304Z" fill="#4169E1"/>
</svg>
