<svg width="24" height="24" viewBox="0 0 24 24" fill="none" xmlns="http://www.w3.org/2000/svg">
<path d="M20.2929 6.29289L19.7626 6.82322L20.2929 6.29289ZM20.2929 7.70711L19.7626 7.17678L20.2929 7.70711ZM4.29289 15.7071L4.82322 16.2374L4.29289 15.7071ZM4.75 19V16.4142H3.25V19H4.75ZM17.1768 4.23744L19.7626 6.82322L20.8232 5.76256L18.2374 3.17678L17.1768 4.23744ZM7.58579 19.25H5V20.75H7.58579V19.25ZM19.7626 7.17678L17.4697 9.46967L18.5303 10.5303L20.8232 8.23744L19.7626 7.17678ZM17.4697 9.46967L7.76256 19.1768L8.82322 20.2374L18.5303 10.5303L17.4697 9.46967ZM4.82322 16.2374L14.5303 6.53033L13.4697 5.46967L3.76256 15.1768L4.82322 16.2374ZM14.5303 6.53033L16.8232 4.23744L15.7626 3.17678L13.4697 5.46967L14.5303 6.53033ZM18.5303 9.46967L14.5303 5.46967L13.4697 6.53033L17.4697 10.5303L18.5303 9.46967ZM7.58579 20.75C8.04991 20.75 8.49503 20.5656 8.82322 20.2374L7.76256 19.1768C7.71568 19.2237 7.65209 19.25 7.58579 19.25V20.75ZM19.7626 6.82322C19.8602 6.92085 19.8602 7.07914 19.7626 7.17678L20.8232 8.23744C21.5066 7.55402 21.5066 6.44598 20.8232 5.76256L19.7626 6.82322ZM18.2374 3.17678C17.554 2.49336 16.446 2.49336 15.7626 3.17678L16.8232 4.23744C16.9209 4.13981 17.0791 4.13981 17.1768 4.23744L18.2374 3.17678ZM4.75 16.4142C4.75 16.3479 4.77634 16.2843 4.82322 16.2374L3.76256 15.1768C3.43437 15.505 3.25 15.9501 3.25 16.4142H4.75ZM3.25 19C3.25 19.9665 4.0335 20.75 5 20.75V19.25C4.86193 19.25 4.75 19.1381 4.75 19H3.25Z" fill="#4772F2"/>
</svg>
