<svg width="20" height="17" viewBox="0 0 20 17" fill="none" xmlns="http://www.w3.org/2000/svg">
<path d="M8.58579 9.08574L9.11612 8.55541L9.11611 8.55541L8.58579 9.08574ZM11.4142 9.08574L10.8839 8.55541L10.8839 8.55541L11.4142 9.08574ZM2 2.25H18V0.75H2V2.25ZM18.25 2.5V14.5H19.75V2.5H18.25ZM18 14.75H2V16.25H18V14.75ZM1.75 14.5V2.5H0.25V14.5H1.75ZM2 14.75C1.86193 14.75 1.75 14.6381 1.75 14.5H0.25C0.25 15.4665 1.0335 16.25 2 16.25V14.75ZM18.25 14.5C18.25 14.6381 18.1381 14.75 18 14.75V16.25C18.9665 16.25 19.75 15.4665 19.75 14.5H18.25ZM2 0.75C1.51696 0.75 1.07843 0.946697 0.762563 1.26256L1.82322 2.32322C1.86929 2.27716 1.93076 2.25 2 2.25V0.75ZM0.762563 1.26256C0.446697 1.57843 0.25 2.01696 0.25 2.5H1.75C1.75 2.43076 1.77716 2.36929 1.82322 2.32322L0.762563 1.26256ZM18 2.25C18.0692 2.25 18.1307 2.27716 18.1768 2.32322L19.2374 1.26256C18.9216 0.946695 18.483 0.75 18 0.75V2.25ZM18.1768 2.32322C18.2228 2.36928 18.25 2.43076 18.25 2.5H19.75C19.75 2.01696 19.5533 1.57843 19.2374 1.26256L18.1768 2.32322ZM8.05546 9.61607C9.1294 10.69 10.8706 10.69 11.9445 9.61607L10.8839 8.55541C10.3957 9.04357 9.60427 9.04356 9.11612 8.55541L8.05546 9.61607ZM0.762565 2.32323L8.05546 9.61607L9.11611 8.55541L1.82322 1.26256L0.762565 2.32323ZM11.9445 9.61607L19.2374 2.32323L18.1768 1.26256L10.8839 8.55541L11.9445 9.61607Z" fill="#252850"/>
</svg>
