<svg width="24" height="24" viewBox="0 0 24 24" fill="none" xmlns="http://www.w3.org/2000/svg">
<path d="M6.40909 4.74437H11.6072C12.0221 4.74437 12.4185 4.91622 12.7021 5.21906L16.913 9.71566C17.1733 9.99361 17.3182 10.3602 17.3182 10.741V19.2086M9.68798 2H13.9407C14.3673 2 14.7738 2.1817 15.0584 2.49963L20.1177 8.15233C20.3639 8.42738 20.5 8.78367 20.5 9.15281C20.5 10.3844 20.5 10.847 20.5 12.3317C20.5 14.0263 20.5 14.3548 20.5 16.0494M10.1597 7.84976L14.1367 12.0682C14.3117 12.2538 14.4091 12.4992 14.4091 12.7542V21C14.4091 21.5523 13.9614 22 13.4091 22H4.5C3.94772 22 3.5 21.5523 3.5 21V8.53574C3.5 7.98346 3.94772 7.53574 4.5 7.53574H9.43206C9.7075 7.53574 9.97074 7.64935 10.1597 7.84976Z" stroke="#4772F2" stroke-width="1.5" stroke-linecap="round"/>
</svg>
