<svg width="20" height="20" viewBox="0 0 20 20" fill="none" xmlns="http://www.w3.org/2000/svg">
<path d="M2.53883 10.2508C2.4871 10.0896 2.48705 9.9151 2.53869 9.75386C3.57827 6.50764 6.52628 4.16675 10.0007 4.16675C13.4734 4.16675 16.4203 6.50547 17.4612 9.74933C17.5129 9.91054 17.5129 10.0851 17.4613 10.2463C16.4217 13.4925 13.4737 15.8334 9.99934 15.8334C6.52659 15.8334 3.57971 13.4947 2.53883 10.2508Z" stroke="#4772F2" stroke-width="1.5" stroke-linecap="round" stroke-linejoin="round"/>
<path d="M12.2464 10.0001C12.2464 11.2887 11.2407 12.3334 10 12.3334C8.75942 12.3334 7.7537 11.2887 7.7537 10.0001C7.7537 8.71142 8.75942 7.66675 10 7.66675C11.2407 7.66675 12.2464 8.71142 12.2464 10.0001Z" stroke="#4772F2" stroke-width="1.5" stroke-linecap="round" stroke-linejoin="round"/>
</svg>
