<svg width="24" height="24" viewBox="0 0 24 24" fill="none" xmlns="http://www.w3.org/2000/svg">
<path d="M14.9272 2.52721C14.5896 2.18964 14.1318 2 13.6544 2V8.14561C13.6544 8.69789 14.1021 9.14561 14.6544 9.14561H20.4C20.4 8.66822 20.2104 8.21038 19.8728 7.87282L14.9272 2.52721Z" fill="#FFA0A0"/>
<path d="M13.6544 2H5.40001H4.60001C4.04772 2 3.60001 2.44772 3.60001 3V20.2V21C3.60001 21.5523 4.04772 22 4.60001 22H5.40001H18.6H19.4C19.9523 22 20.4 21.5523 20.4 21V20.2V9.14561H14.6544C14.1021 9.14561 13.6544 8.69789 13.6544 8.14561V2Z" fill="#FF6969"/>
</svg>
