<svg width="24" height="24" viewBox="0 0 24 24" fill="none" xmlns="http://www.w3.org/2000/svg">
<path d="M14.9268 2.52721C14.5893 2.18964 14.1314 2 13.654 2V8.14561C13.654 8.69789 14.1017 9.14561 14.654 9.14561H20.3996C20.3996 8.66822 20.21 8.21038 19.8724 7.87282L14.9268 2.52721Z" fill="#FFA0A0"/>
<path d="M13.654 2H5.39961H4.59961C4.04732 2 3.59961 2.44772 3.59961 3V20.2V21C3.59961 21.5523 4.04732 22 4.59961 22H5.39961H18.5996H19.3996C19.9519 22 20.3996 21.5523 20.3996 21V20.2V9.14561H14.654C14.1017 9.14561 13.654 8.69789 13.654 8.14561V2Z" fill="#FF6969"/>
</svg>
