<svg width="20" height="20" viewBox="0 0 20 20" fill="none" xmlns="http://www.w3.org/2000/svg">
<path d="M2.8125 16.25H9.0625M2.8125 16.25H10M2.8125 16.25V16.25C2.29473 16.25 1.875 15.8303 1.875 15.3125V15.3125M1.875 15.3125V14.0625M1.875 15.3125V13.125M18.125 15.3125V14.0625M18.125 15.3125V15.3125C18.125 15.8303 17.7053 16.25 17.1875 16.25V16.25M18.125 15.3125V13.125M17.1875 16.25H10.9375M17.1875 16.25H10M18.125 4.6875V5.9375M18.125 4.6875V6.875M18.125 4.6875V4.6875C18.125 4.16973 17.7053 3.75 17.1875 3.75V3.75H2.8125V3.75C2.29473 3.75 1.875 4.16973 1.875 4.6875V4.6875M1.875 4.6875V5.9375M1.875 4.6875V6.875M2.8125 6.875H9.0625M2.8125 6.875H10M2.8125 6.875H1.875M17.1875 6.875H10.9375M17.1875 6.875H18.125M17.1875 6.875H10M1.875 9.0625V7.8125M10 9.0625V7.8125M18.125 9.0625V7.8125M1.875 12.1875V10.9375M10 12.1875V10.9375M10 15.3125V14.0625M18.125 12.1875V10.9375M18.125 10H17.1875H10.9375H10M18.125 10V6.875M18.125 10V13.125M10 16.25V13.125M10 6.875V10M10 10H9.0625H2.8125H1.875M10 10V13.125M10 13.125H10.9375H17.1875H18.125M10 13.125H9.0625H2.8125H1.875M1.875 13.125V10M1.875 10V6.875" stroke="white" stroke-width="1.5" stroke-linecap="round" stroke-linejoin="round"/>
</svg>
