<svg width="18" height="21" viewBox="0 0 18 21" fill="none" xmlns="http://www.w3.org/2000/svg">
<path d="M17 19.5V20.25C17.4142 20.25 17.75 19.9142 17.75 19.5H17ZM1 19.5H0.25C0.25 19.9142 0.585786 20.25 1 20.25L1 19.5ZM5 14.25H13V12.75H5V14.25ZM16.25 17.5V19.5H17.75V17.5H16.25ZM1.75 19.5V17.5H0.25V19.5H1.75ZM13 14.25C14.7949 14.25 16.25 15.7051 16.25 17.5H17.75C17.75 14.8766 15.6234 12.75 13 12.75V14.25ZM5 12.75C2.37665 12.75 0.25 14.8766 0.25 17.5H1.75C1.75 15.7051 3.20507 14.25 5 14.25V12.75ZM12.25 5.5C12.25 7.29493 10.7949 8.75 9 8.75V10.25C11.6234 10.25 13.75 8.12335 13.75 5.5H12.25ZM9 8.75C7.20507 8.75 5.75 7.29493 5.75 5.5H4.25C4.25 8.12335 6.37665 10.25 9 10.25V8.75ZM5.75 5.5C5.75 3.70507 7.20507 2.25 9 2.25V0.75C6.37665 0.75 4.25 2.87665 4.25 5.5H5.75ZM9 2.25C10.7949 2.25 12.25 3.70507 12.25 5.5H13.75C13.75 2.87665 11.6234 0.75 9 0.75V2.25ZM1 20.25H17V18.75H1V20.25Z" fill="#252850"/>
</svg>
